<svg width="45" height="75" viewBox="0 0 45 75" fill="none" xmlns="http://www.w3.org/2000/svg">
<path d="M37.1265 12.0143L33.3352 30.377L27.2143 29.1132L25.9505 35.2341L19.8296 33.9703L18.5658 40.0912L24.6867 41.355L23.4229 47.4759L29.5438 48.7396L25.7524 67.1023L31.8733 68.3661L30.6095 74.487L18.3677 71.9594L19.6315 65.8385L13.5106 64.5747L17.302 46.2121L11.1811 44.9483L12.4449 38.8274L6.324 37.5636L7.5878 31.4427L13.7087 32.7065L14.9725 26.5856L21.0934 27.8494L24.8847 9.4867L31.0056 10.7505L32.2694 4.6296L44.5112 7.15718L43.2474 13.2781L37.1265 12.0143Z" fill="#F7F7F7"/>
</svg>
