<svg width="90" height="60" viewBox="0 0 90 60" fill="none" xmlns="http://www.w3.org/2000/svg">
<path d="M1.28386 32.1315L1.43095 25.8833L7.67922 26.0304L7.82631 19.7821L14.0746 19.9292L14.2217 13.6809L20.4699 13.828L20.617 7.57974L26.8653 7.72683L27.0124 1.47856L39.5089 1.77274L39.3618 8.02101L33.1136 7.87392L32.9665 14.1222L26.7182 13.9751L26.5711 20.2234L20.3228 20.0763L20.1758 26.3245L13.9275 26.1775L13.7804 32.4257L20.0287 32.5728L19.8816 38.8211L26.1298 38.9682L25.9828 45.2164L32.231 45.3635L32.0839 51.6118L38.3322 51.7589L38.1851 58.0072L25.6886 57.713L25.8357 51.4647L19.5874 51.3176L19.7345 45.0694L13.4862 44.9223L13.6333 38.674L7.38504 38.5269L7.53213 32.2786L1.28386 32.1315ZM51.27 33.3083L51.4171 27.06L57.6654 27.2071L57.8125 20.9588L64.0607 21.1059L64.2078 14.8576L70.4561 15.0047L70.6032 8.75646L76.8514 8.90355L76.9985 2.65528L89.4951 2.94946L89.348 9.19773L83.0997 9.05064L82.9526 15.2989L76.7044 15.1518L76.5573 21.4001L70.309 21.253L70.1619 27.5013L63.9136 27.3542L63.7665 33.6024L70.0148 33.7495L69.8677 39.9978L76.116 40.1449L75.9689 46.3932L82.2172 46.5403L82.0701 52.7885L88.3184 52.9356L88.1713 59.1839L75.6747 58.8897L75.8218 52.6414L69.5735 52.4943L69.7206 46.2461L63.4724 46.099L63.6195 39.8507L57.3712 39.7036L57.5183 33.4554L51.27 33.3083Z" fill="#F7F7F7"/>
</svg>
