<svg width="23" height="19" viewBox="0 0 23 19" fill="none" xmlns="http://www.w3.org/2000/svg">
<path d="M9.47041 0C9.90992 0 10.3494 0 10.8022 0C10.8022 0.927835 10.8022 1.85567 10.8022 2.81162C14.7577 2.81162 18.7132 2.81162 22.7886 2.81162C22.7886 7.64613 22.7886 12.4806 22.7886 17.4616C22.3491 17.4616 21.9096 17.4616 21.4568 17.4616C21.4568 17.9011 21.4568 18.3406 21.4568 18.7935C14.8643 18.7935 8.27178 18.7935 1.47949 18.7935C1.47949 14.838 1.47949 10.8825 1.47949 6.80708C6.314 6.80708 11.1485 6.80708 16.1295 6.80708C16.1295 6.36758 16.1295 5.92808 16.1295 5.47526C11.6857 5.47526 7.24184 5.47526 2.66333 5.47526C2.66333 4.10793 2.66333 2.74059 2.66333 1.33182C4.90967 1.33182 7.15601 1.33182 9.47041 1.33182C9.47041 0.89232 9.47041 0.452819 9.47041 0Z" fill="#FEB658"/>
<path d="M9.47041 0C9.90992 0 10.3494 0 10.8022 0C10.8022 0.927835 10.8022 1.85567 10.8022 2.81162C14.7577 2.81162 18.7132 2.81162 22.7886 2.81162C22.7886 7.64613 22.7886 12.4806 22.7886 17.4616C22.3491 17.4616 21.9096 17.4616 21.4568 17.4616C21.4568 17.9011 21.4568 18.3406 21.4568 18.7935C14.8643 18.7935 8.27178 18.7935 1.47949 18.7935C1.47949 18.354 1.47949 17.9145 1.47949 17.4616C6.7535 17.4616 12.0275 17.4616 17.4613 17.4616C17.4613 14.3851 17.4613 11.3086 17.4613 8.1389C17.0218 8.1389 16.5823 8.1389 16.1295 8.1389C16.1295 7.74824 16.1295 7.35757 16.1295 6.95506C11.295 6.95506 6.4605 6.95506 1.47949 6.95506C1.47949 6.90623 1.47949 6.8574 1.47949 6.80708C6.314 6.80708 11.1485 6.80708 16.1295 6.80708C16.1295 6.36758 16.1295 5.92808 16.1295 5.47526C11.6857 5.47526 7.24184 5.47526 2.66333 5.47526C2.66333 4.10793 2.66333 2.74059 2.66333 1.33182C4.90967 1.33182 7.15601 1.33182 9.47041 1.33182C9.47041 0.89232 9.47041 0.452819 9.47041 0Z" fill="#FEB759"/>
<path d="M1.33182 0.147949C4.01766 0.147949 6.7035 0.147949 9.47072 0.147949C9.47072 0.538617 9.47072 0.929284 9.47072 1.33179C7.22439 1.33179 4.97805 1.33179 2.66364 1.33179C2.66364 2.69913 2.66364 4.06646 2.66364 5.47523C7.10748 5.47523 11.5513 5.47523 16.1298 5.47523C16.1298 5.91473 16.1298 6.35423 16.1298 6.80705C11.2953 6.80705 6.46081 6.80705 1.4798 6.80705C1.4798 10.7626 1.4798 14.7181 1.4798 18.7934C1.38213 18.7934 1.28447 18.7934 1.18384 18.7934C1.18384 18.4028 1.18384 18.0121 1.18384 17.6096C0.793173 17.6096 0.402506 17.6096 0 17.6096C0 13.9959 0 10.3822 0 6.65907C0.439501 6.65907 0.879002 6.65907 1.33182 6.65907C1.33182 4.5104 1.33182 2.36173 1.33182 0.147949Z" fill="#FDDBB3"/>
<path d="M16.2775 5.4751C16.6682 5.4751 17.0588 5.4751 17.4613 5.4751C17.4613 5.9146 17.4613 6.3541 17.4613 6.80692C17.9008 6.80692 18.3403 6.80692 18.7932 6.80692C18.7932 10.3229 18.7932 13.8389 18.7932 17.4615C19.6722 17.4615 20.5512 17.4615 21.4568 17.4615C21.4568 17.901 21.4568 18.3405 21.4568 18.7933C14.8643 18.7933 8.27178 18.7933 1.47949 18.7933C1.47949 18.3538 1.47949 17.9143 1.47949 17.4615C6.7535 17.4615 12.0275 17.4615 17.4613 17.4615C17.4613 14.385 17.4613 11.3085 17.4613 8.13874C17.0218 8.13874 16.5823 8.13874 16.1295 8.13874C16.1784 7.25974 16.2272 6.38074 16.2775 5.4751Z" fill="#E09637"/>
<path d="M10.8027 0.147949C10.8516 0.147949 10.9004 0.147949 10.9507 0.147949C10.9507 0.538617 10.9507 0.929284 10.9507 1.33179C14.4667 1.33179 17.9827 1.33179 21.6053 1.33179C21.6053 1.77129 21.6053 2.21079 21.6053 2.66361C22.0448 2.66361 22.4843 2.66361 22.9371 2.66361C22.9371 7.54695 22.9371 12.4303 22.9371 17.4616C22.8883 17.4616 22.8394 17.4616 22.7891 17.4616C22.7891 12.6271 22.7891 7.7926 22.7891 2.81159C18.8336 2.81159 14.8781 2.81159 10.8027 2.81159C10.8027 1.93259 10.8027 1.05359 10.8027 0.147949Z" fill="#FADCB9"/>
<path d="M9.4707 0C9.9102 0 10.3497 0 10.8025 0C10.8025 0.927835 10.8025 1.85567 10.8025 2.81162C10.363 2.81162 9.92352 2.81162 9.4707 2.81162C9.4707 1.88379 9.4707 0.955951 9.4707 0Z" fill="#E09A45"/>
<path d="M1.33182 0.147949C1.38065 0.147949 1.42949 0.147949 1.4798 0.147949C1.4798 2.34545 1.4798 4.54296 1.4798 6.80705C1.18384 6.95503 1.18384 6.95503 0.29596 6.95503C0.247127 10.4222 0.198293 13.8894 0.14798 17.4616C0.538647 17.4616 0.929315 17.4616 1.33182 17.4616C1.33182 17.9011 1.33182 18.3406 1.33182 18.7934C1.28299 18.7934 1.23415 18.7934 1.18384 18.7934C1.18384 18.4028 1.18384 18.0121 1.18384 17.6096C0.793173 17.6096 0.402506 17.6096 0 17.6096C0 13.9959 0 10.3822 0 6.65907C0.439501 6.65907 0.879002 6.65907 1.33182 6.65907C1.33182 4.5104 1.33182 2.36173 1.33182 0.147949Z" fill="#FCEBD4"/>
</svg>
