<svg width="26" height="19" viewBox="0 0 26 19" fill="none" xmlns="http://www.w3.org/2000/svg">
<path d="M12.2678 0.149414C12.7615 0.149414 13.2552 0.149414 13.7638 0.149414C13.7638 1.03808 13.7638 1.92674 13.7638 2.84234C17.7628 2.84234 21.7618 2.84234 25.882 2.84234C25.882 7.72999 25.882 12.6176 25.882 17.6534C25.4377 17.6534 24.9933 17.6534 24.5355 17.6534C24.5355 18.0977 24.5355 18.5421 24.5355 18.9999C17.8212 18.9999 11.1068 18.9999 4.18901 18.9999C4.18901 17.6669 4.18901 16.3339 4.18901 14.9605C3.74468 14.9605 3.30035 14.9605 2.84255 14.9605C2.84255 14.0718 2.84255 13.1832 2.84255 12.2676C2.39822 12.2676 1.95389 12.2676 1.49609 12.2676C1.49609 11.3295 1.49609 10.3915 1.49609 9.42503C6.82808 9.42503 12.1601 9.42503 17.6536 9.42503C17.6536 9.03007 17.6536 8.63511 17.6536 8.22818C13.6546 8.22818 9.65564 8.22818 5.53548 8.22818C5.53548 5.95715 5.53548 3.68612 5.53548 1.34627C7.75714 1.34627 9.97879 1.34627 12.2678 1.34627C12.2678 0.951306 12.2678 0.556344 12.2678 0.149414Z" fill="#FEB758"/>
<path d="M5.53548 1.34619C7.75714 1.34619 9.97879 1.34619 12.2678 1.34619C12.2678 1.39556 12.2678 1.44493 12.2678 1.4958C10.0955 1.4958 7.9232 1.4958 5.68508 1.4958C5.68508 3.66809 5.68508 5.84038 5.68508 8.07849C6.55812 8.07676 7.43117 8.07502 8.33067 8.07323C8.88224 8.07247 9.43382 8.07175 9.9854 8.07119C10.8618 8.07029 11.7381 8.06923 12.6145 8.06721C13.3207 8.06559 14.0269 8.06469 14.7331 8.0643C15.0031 8.06402 15.2731 8.06348 15.5432 8.06268C15.9201 8.0616 16.2969 8.06144 16.6738 8.06151C16.7866 8.06097 16.8994 8.06043 17.0156 8.05988C17.7862 8.06143 17.7862 8.06143 17.9528 8.2281C17.9553 8.52756 17.9472 8.82712 17.9347 9.12633C17.9275 9.30809 17.9203 9.48985 17.9128 9.67712C17.9044 9.86853 17.896 10.0599 17.8874 10.2571C17.8796 10.4491 17.8718 10.6411 17.8637 10.8389C17.8442 11.3151 17.824 11.7913 17.8032 12.2675C18.2476 12.2675 18.6919 12.2675 19.1497 12.2675C19.1497 13.1561 19.1497 14.0448 19.1497 14.9604C19.594 14.9604 20.0384 14.9604 20.4961 14.9604C20.4961 15.8491 20.4961 16.7377 20.4961 17.6533C15.1148 17.6533 9.73344 17.6533 4.18901 17.6533C4.18901 16.7647 4.18901 15.876 4.18901 14.9604C3.74468 14.9604 3.30035 14.9604 2.84255 14.9604C2.84255 14.0717 2.84255 13.1831 2.84255 12.2675C2.39822 12.2675 1.95389 12.2675 1.49609 12.2675C1.49609 11.3294 1.49609 10.3914 1.49609 9.42495C6.82808 9.42495 12.1601 9.42495 17.6536 9.42495C17.6536 9.02999 17.6536 8.63503 17.6536 8.2281C13.6546 8.2281 9.65564 8.2281 5.53548 8.2281C5.53548 5.95707 5.53548 3.68604 5.53548 1.34619Z" fill="#FEB75A"/>
<path d="M4.18901 0C7.29934 0 10.4097 0 13.6142 0C13.6142 0.0493702 13.6142 0.0987404 13.6142 0.149607C13.1699 0.149607 12.7256 0.149607 12.2678 0.149607C12.2678 0.544568 12.2678 0.93953 12.2678 1.34646C10.0461 1.34646 7.82446 1.34646 5.53548 1.34646C5.53548 3.61749 5.53548 5.88852 5.53548 8.22837C9.53446 8.22837 13.5335 8.22837 17.6536 8.22837C17.6536 8.62333 17.6536 9.01829 17.6536 9.42522C12.3216 9.42522 6.98965 9.42522 1.49609 9.42522C1.49609 9.03026 1.49609 8.6353 1.49609 8.22837C2.38476 8.22837 3.27342 8.22837 4.18901 8.22837C4.18901 5.51301 4.18901 2.79765 4.18901 0Z" fill="#FCDDB8"/>
<path d="M20.4966 14.9604C20.9409 14.9604 21.3852 14.9604 21.843 14.9604C21.843 15.8491 21.843 16.7378 21.843 17.6534C22.7317 17.6534 23.6204 17.6534 24.536 17.6534C24.536 18.0977 24.536 18.542 24.536 18.9998C17.8216 18.9998 11.1073 18.9998 4.18945 18.9998C4.18945 18.5555 4.18945 18.1112 4.18945 17.6534C9.57081 17.6534 14.9522 17.6534 20.4966 17.6534C20.4966 16.7647 20.4966 15.876 20.4966 14.9604Z" fill="#DF9638"/>
<path d="M24.5352 2.84277C24.9795 2.84277 25.4238 2.84277 25.8816 2.84277C25.8816 7.73042 25.8816 12.6181 25.8816 17.6538C25.4373 17.6538 24.993 17.6538 24.5352 17.6538C24.5352 12.7662 24.5352 7.87854 24.5352 2.84277Z" fill="#DE963E"/>
<path d="M13.7637 1.34619C17.3183 1.34619 20.873 1.34619 24.5354 1.34619C24.5354 1.79052 24.5354 2.23486 24.5354 2.69265C24.9797 2.69265 25.424 2.69265 25.8818 2.69265C25.8818 2.74202 25.8818 2.79139 25.8818 2.84226C21.8828 2.84226 17.8838 2.84226 13.7637 2.84226C13.7637 2.34856 13.7637 1.85485 13.7637 1.34619Z" fill="#FCDCB6"/>
<path d="M0 9.42529C0.493702 9.42529 0.987404 9.42529 1.49607 9.42529C1.49607 10.3633 1.49607 11.3014 1.49607 12.2678C1.00237 12.2678 0.508663 12.2678 0 12.2678C0 11.3298 0 10.3918 0 9.42529Z" fill="#FDDDB6"/>
<path d="M2.84277 14.9604C3.28711 14.9604 3.73144 14.9604 4.18923 14.9604C4.18923 15.8491 4.18923 16.7378 4.18923 17.6534C3.7449 17.6534 3.30057 17.6534 2.84277 17.6534C2.84277 16.7647 2.84277 15.876 2.84277 14.9604Z" fill="#FADEB8"/>
<path d="M1.49609 12.2681C1.94043 12.2681 2.38476 12.2681 2.84255 12.2681C2.84255 13.1567 2.84255 14.0454 2.84255 14.961C2.39822 14.961 1.95389 14.961 1.49609 14.961C1.49609 14.0723 1.49609 13.1837 1.49609 12.2681Z" fill="#FBDDB2"/>
<path d="M19.1494 12.2681C19.5937 12.2681 20.0381 12.2681 20.4959 12.2681C20.4959 13.1567 20.4959 14.0454 20.4959 14.961C20.0515 14.961 19.6072 14.961 19.1494 14.961C19.1494 14.0723 19.1494 13.1837 19.1494 12.2681Z" fill="#E1983A"/>
<path d="M17.8037 9.57471C18.248 9.57471 18.6924 9.57471 19.1502 9.57471C19.1502 10.4634 19.1502 11.352 19.1502 12.2676C18.7058 12.2676 18.2615 12.2676 17.8037 12.2676C17.8037 11.379 17.8037 10.4903 17.8037 9.57471Z" fill="#E0983A"/>
<path d="M12.417 0.149414C12.812 0.149414 13.2069 0.149414 13.6138 0.149414C13.6138 1.03808 13.6138 1.92674 13.6138 2.84234C13.2189 2.84234 12.8239 2.84234 12.417 2.84234C12.417 1.95367 12.417 1.06501 12.417 0.149414Z" fill="#DE953A"/>
<path d="M0 9.42529C0.493702 9.42529 0.987404 9.42529 1.49607 9.42529C1.49607 9.52403 1.49607 9.62277 1.49607 9.72451C1.10111 9.72451 0.706144 9.72451 0.299213 9.72451C0.299213 10.5144 0.299213 11.3044 0.299213 12.1182C0.694175 12.1182 1.08914 12.1182 1.49607 12.1182C1.49607 12.1676 1.49607 12.217 1.49607 12.2678C1.00237 12.2678 0.508663 12.2678 0 12.2678C0 11.3298 0 10.3918 0 9.42529Z" fill="#F8E8D1"/>
</svg>
