<svg width="107" height="96" viewBox="0 0 107 96" fill="none" xmlns="http://www.w3.org/2000/svg">
<path d="M28.9865 95.9614L23.1916 84.8858L28.7294 81.9883L22.9344 70.9127L28.4722 68.0153L22.6773 56.9397L28.2151 54.0422L22.4201 42.9666L27.9579 40.0691L22.163 28.9935L33.2385 23.1986L39.0335 34.2742L33.4957 37.1717L39.2906 48.2472L33.7528 51.1447L39.5478 62.2203L34.01 65.1178L39.8049 76.1934L34.2672 79.0908L40.0621 90.1664L28.9865 95.9614ZM70.3914 67.2438L67.4939 61.706L73.0317 58.8085L70.1342 53.2707L75.672 50.3733L72.7746 44.8355L78.3123 41.938L75.4149 36.4002L80.9527 33.5027L78.0552 27.9649L72.5174 30.8624L69.6199 25.3246L64.0821 28.2221L61.1847 22.6843L55.6469 25.5818L52.7494 20.044L47.2116 22.9414L44.3141 17.4037L55.3897 11.6087L58.2872 17.1465L63.825 14.249L66.7225 19.7868L72.2602 16.8893L75.1577 22.4271L80.6955 19.5297L83.593 25.0675L89.1308 22.17L92.0282 27.7078L86.4905 30.6053L89.3879 36.143L83.8501 39.0405L86.7476 44.5783L81.2098 47.4758L84.1073 53.0136L78.5695 55.9111L81.467 61.4488L70.3914 67.2438Z" fill="#F7F7F7"/>
</svg>
