<svg width="101" height="41" viewBox="0 0 101 41" fill="none" xmlns="http://www.w3.org/2000/svg">
<rect y="35.5381" width="86.8236" height="5.4618" fill="#2F2F2F"/>
<rect x="93.9121" y="33.7173" width="7.08765" height="7.28239" rx="3.54382" fill="#2F2F2F"/>
<path d="M79.7009 26.4336V16.3475C79.7009 15.4251 79.4174 14.6847 78.8503 14.1264C78.307 13.5438 77.61 13.2525 76.7595 13.2525C76.1689 13.2525 75.6491 13.386 75.2002 13.653C74.7513 13.8958 74.3969 14.2599 74.1371 14.7454C73.8772 15.2066 73.7472 15.7406 73.7472 16.3475L71.6564 15.2916C71.6564 13.9079 71.9517 12.6942 72.5423 11.6504C73.133 10.6066 73.9481 9.80549 74.9876 9.24718C76.0507 8.66459 77.2438 8.37329 78.5668 8.37329C79.8426 8.37329 80.9648 8.68886 81.9335 9.32C82.9257 9.92687 83.7054 10.7401 84.2724 11.7596C84.8394 12.7791 85.1229 13.8958 85.1229 15.1095V26.4336H79.7009ZM68.3252 26.4336V8.73741H73.7472V26.4336H68.3252Z" fill="#2F2F2F"/>
<path d="M56.2 26.8354C54.4281 26.8354 52.8216 26.4349 51.3804 25.6338C49.9629 24.8085 48.8407 23.6918 48.0138 22.2839C47.1869 20.876 46.7734 19.2981 46.7734 17.5504C46.7734 15.8026 47.1869 14.2369 48.0138 12.8532C48.8407 11.4696 49.9629 10.3772 51.3804 9.57614C52.7979 8.7508 54.4045 8.33813 56.2 8.33813C57.9955 8.33813 59.6021 8.73867 61.0196 9.53973C62.4371 10.3408 63.5593 11.4453 64.3862 12.8532C65.2131 14.2369 65.6266 15.8026 65.6266 17.5504C65.6266 19.2981 65.2131 20.876 64.3862 22.2839C63.5593 23.6918 62.4371 24.8085 61.0196 25.6338C59.6021 26.4349 57.9955 26.8354 56.2 26.8354ZM56.2 21.7742C56.9796 21.7742 57.6648 21.6042 58.2554 21.2644C58.8461 20.9003 59.2949 20.4026 59.6021 19.7715C59.9328 19.1161 60.0982 18.3757 60.0982 17.5504C60.0982 16.725 59.9328 16.0089 59.6021 15.4021C59.2713 14.7709 58.8106 14.2854 58.22 13.9456C57.653 13.5815 56.9796 13.3994 56.2 13.3994C55.444 13.3994 54.7707 13.5815 54.18 13.9456C53.5894 14.2854 53.1287 14.7709 52.7979 15.4021C52.4672 16.0332 52.3018 16.7614 52.3018 17.5868C52.3018 18.3878 52.4672 19.1161 52.7979 19.7715C53.1287 20.4026 53.5894 20.9003 54.18 21.2644C54.7707 21.6042 55.444 21.7742 56.2 21.7742Z" fill="#2F2F2F"/>
<path d="M21.6074 26.4349L31.5301 0.728027H36.5624L46.3787 26.4349H40.496L32.9831 5.09747H35.0031L27.3839 26.4349H21.6074ZM27.2421 21.7741V17.1134H40.8858V21.7741H27.2421Z" fill="#2F2F2F"/>
<path d="M9.24944 26.7992C7.61929 26.7992 6.16632 26.3987 4.89054 25.5976C3.63839 24.7966 2.64612 23.7042 1.91373 22.3205C1.20497 20.9369 0.850586 19.359 0.850586 17.587C0.850586 15.8149 1.20497 14.2371 1.91373 12.8534C2.64612 11.4698 3.63839 10.3774 4.89054 9.57635C6.16632 8.77529 7.61929 8.37475 9.24944 8.37475C10.4307 8.37475 11.4939 8.60536 12.4389 9.06658C13.4075 9.5278 14.199 10.1711 14.8132 10.9964C15.4511 11.7975 15.8055 12.7199 15.8764 13.7637V21.2282C15.8055 22.272 15.4629 23.2187 14.8487 24.0683C14.2344 24.8937 13.443 25.5612 12.4743 26.071C11.5057 26.5565 10.4307 26.7992 9.24944 26.7992ZM10.2063 21.7744C10.9859 21.7744 11.6592 21.6044 12.2263 21.2646C12.7933 20.9005 13.2422 20.4028 13.5729 19.7717C13.9037 19.1406 14.069 18.4123 14.069 17.587C14.069 16.7616 13.9037 16.0455 13.5729 15.4387C13.2658 14.8075 12.8169 14.3099 12.2263 13.9458C11.6592 13.5817 10.9977 13.3996 10.2417 13.3996C9.4857 13.3996 8.81237 13.5817 8.22174 13.9458C7.65472 14.3099 7.19403 14.8075 6.83965 15.4387C6.50889 16.0698 6.34351 16.7859 6.34351 17.587C6.34351 18.388 6.50889 19.1041 6.83965 19.7353C7.1704 20.3664 7.6311 20.8641 8.22174 21.2282C8.81237 21.5923 9.47389 21.7744 10.2063 21.7744ZM19.1721 26.4351H13.8564V21.6651L14.6715 17.3685L13.7501 13.0719V0H19.1721V26.4351Z" fill="#2F2F2F"/>
</svg>
