<svg width="80" height="80" viewBox="0 0 80 80" fill="none" xmlns="http://www.w3.org/2000/svg">
<rect width="80" height="80" rx="8" fill="#2C2F35"/>
<path d="M7.875 42.5V39.625H10.75V36.75H13.625V33.875H16.5V31H19.375V28.125H25.125V31H22.25V33.875H19.375V36.75H16.5V39.625H13.625V42.5H16.5V45.375H19.375V48.25H22.25V51.125H25.125V54H19.375V51.125H16.5V48.25H13.625V45.375H10.75V42.5H7.875ZM30.875 56.875V51.125H33.75V45.375H36.625V39.625H39.5V33.875H42.375V28.125H48.125V33.875H45.25V39.625H42.375V45.375H39.5V51.125H36.625V56.875H30.875ZM53.875 54V51.125H56.75V48.25H59.625V45.375H62.5V42.5H65.375V39.625H62.5V36.75H59.625V33.875H56.75V31H53.875V28.125H59.625V31H62.5V33.875H65.375V36.75H68.25V39.625H71.125V42.5H68.25V45.375H65.375V48.25H62.5V51.125H59.625V54H53.875Z" fill="#1CFF9C"/>
<circle cx="9.5" cy="9.5" r="1.5" fill="#FF57FC"/>
<circle cx="14.5" cy="9.5" r="1.5" fill="#1CFF9C"/>
<circle cx="19.5" cy="9.5" r="1.5" fill="#FFD900"/>
</svg>
