<svg width="113" height="32" viewBox="0 0 113 32" fill="none" xmlns="http://www.w3.org/2000/svg">
<path d="M29.7465 29.1166C28.8327 29.1166 28.1733 28.9843 27.7683 28.7196C27.3616 28.4549 27.1141 28.0957 27.0258 27.6419C26.9358 27.1882 26.8926 26.7224 26.8926 26.2446V5.57469C26.8926 5.09688 26.9358 4.63625 27.0258 4.19624C27.1141 3.75624 27.3616 3.39702 27.7683 3.11858C28.1733 2.84186 28.8466 2.70264 29.7846 2.70264C30.7486 2.70264 31.4271 2.84186 31.8199 3.11858C32.2128 3.3953 32.4534 3.75452 32.5434 4.19624C32.6316 4.63797 32.6766 5.10891 32.6766 5.61251V26.2824C32.6766 26.7619 32.6264 27.2208 32.5243 27.6608C32.4222 28.1025 32.1747 28.4549 31.7818 28.7196C31.389 28.9843 30.7105 29.1166 29.7465 29.1166Z" fill="#2E8B57"/>
<path d="M39.5161 28.5068C38.6022 28.5068 37.9428 28.3744 37.5379 28.1097C37.1311 27.845 36.8836 27.4858 36.7954 27.0321C36.7071 26.5783 36.6621 26.1125 36.6621 25.6347V4.96483C36.6621 3.88201 36.8767 3.13263 37.3094 2.71668C37.7403 2.30074 38.514 2.09277 39.6303 2.09277H54.0125C54.5196 2.09277 54.9886 2.13746 55.4196 2.22512C55.8505 2.31449 56.2053 2.55856 56.4857 2.96247C56.7644 3.36638 56.9046 4.04529 56.9046 5.00264C56.9046 5.91015 56.7644 6.565 56.4857 6.96719C56.2071 7.3711 55.8454 7.61689 55.4006 7.70454C54.9558 7.7922 54.4816 7.83688 53.9745 7.83688H42.4462V12.7113H50.2846C50.7917 12.7113 51.2416 12.7491 51.6345 12.8247C52.0274 12.9004 52.3389 13.1152 52.5674 13.4676C52.7958 13.8199 52.9101 14.4129 52.9101 15.243C52.9101 16.0234 52.7958 16.5906 52.5674 16.9429C52.3389 17.2953 52.0153 17.5101 51.5964 17.5857C51.1776 17.6613 50.7155 17.6992 50.2067 17.6992H42.4444V22.7626H54.0108C54.5179 22.7626 54.9869 22.8125 55.4179 22.9139C55.8488 23.0153 56.2036 23.2611 56.484 23.6512C56.7626 24.0414 56.9028 24.7152 56.9028 25.6725C56.9028 26.58 56.7626 27.2349 56.484 27.6371C56.2053 28.041 55.8436 28.285 55.3988 28.3744C54.954 28.4621 54.4798 28.5068 53.9727 28.5068H39.5161Z" fill="#2E8B57"/>
<path d="M70.4207 29.4569C68.5688 29.4569 66.9333 29.0977 65.5124 28.3792C64.0915 27.6608 62.899 26.7034 61.935 25.5072C60.971 24.3109 60.2475 22.9634 59.7664 21.4646C59.2835 19.9659 59.043 18.4362 59.043 16.8738V5.57466C59.043 5.07107 59.0862 4.59841 59.1762 4.1584C59.2645 3.7184 59.512 3.35918 59.9187 3.08074C60.3237 2.80401 60.9969 2.66479 61.935 2.66479C62.899 2.66479 63.5844 2.80401 63.9893 3.08074C64.3943 3.35746 64.6418 3.71668 64.7318 4.1584C64.8201 4.60012 64.8651 5.08482 64.8651 5.61248V16.8738C64.8651 17.9824 65.0485 19.0532 65.4172 20.0862C65.7841 21.1192 66.3881 21.9751 67.2241 22.6558C68.0617 23.3364 69.1642 23.6767 70.5349 23.6767C71.7014 23.6767 72.7035 23.3931 73.5412 22.8259C74.3788 22.2587 75.0244 21.4646 75.4813 20.4454C75.9382 19.4245 76.1667 18.2231 76.1667 16.836V5.3856C76.1667 4.90778 76.2168 4.46606 76.319 4.06387C76.4193 3.66168 76.6738 3.32652 77.0805 3.06183C77.4855 2.79714 78.1466 2.66479 79.0587 2.66479C80.0227 2.66479 80.7011 2.81089 81.094 3.09964C81.4869 3.39011 81.7274 3.75449 81.8174 4.19621C81.9057 4.63794 81.9507 5.10888 81.9507 5.61248V16.9495C81.9507 18.5359 81.7032 20.0742 81.2082 21.5592C80.7132 23.0459 79.9708 24.3814 78.9825 25.5639C77.9926 26.7481 76.788 27.6935 75.3671 28.3981C73.9461 29.1046 72.2985 29.4569 70.4207 29.4569Z" fill="#2E8B57"/>
<path d="M88.0375 29.1169C87.1237 29.1169 86.4643 28.9777 86.0593 28.7009C85.6526 28.4242 85.4051 28.065 85.3169 27.6233C85.2286 27.1833 85.1836 26.7106 85.1836 26.2053V5.57497C85.1836 5.09715 85.2269 4.64339 85.3169 4.21542C85.4051 3.78745 85.6526 3.4351 86.0593 3.15666C86.4643 2.87994 87.1497 2.74072 88.1137 2.74072C88.7471 2.74072 89.23 2.77853 89.5588 2.85416C89.8877 2.92979 90.13 3.03635 90.2823 3.17557C90.4346 3.31479 90.599 3.4712 90.7773 3.64823L99.3391 15.1347H98.768L107.368 3.64823C107.57 3.42135 107.773 3.24604 107.977 3.11885C108.18 2.99338 108.439 2.89885 108.758 2.83525C109.074 2.77338 109.524 2.74072 110.108 2.74072C111.021 2.74072 111.681 2.87994 112.086 3.15666C112.491 3.43338 112.745 3.79261 112.847 4.23433C112.948 4.67605 113 5.14699 113 5.65059V26.2826C113 26.7622 112.949 27.2142 112.847 27.6422C112.745 28.0702 112.493 28.4225 112.086 28.7009C111.679 28.9777 111.008 29.1169 110.07 29.1169C109.156 29.1169 108.496 28.9777 108.091 28.7009C107.685 28.4242 107.432 28.0581 107.33 27.6044C107.228 27.1506 107.178 26.6848 107.178 26.207V12.7542L101.508 20.7276C101.406 20.829 101.267 20.9854 101.089 21.2003C100.911 21.4151 100.663 21.6042 100.346 21.7675C100.03 21.9325 99.5918 22.0132 99.0345 22.0132C98.5014 22.0132 98.0705 21.9325 97.7399 21.7675C97.4094 21.6042 97.1636 21.422 96.9975 21.2192C96.8313 21.0181 96.6859 20.841 96.5596 20.6898L90.9296 12.756V26.2844C90.9296 26.7639 90.8794 27.2159 90.7773 27.6439C90.6752 28.0719 90.4277 28.4242 90.0348 28.7027C89.6419 28.9777 88.9756 29.1169 88.0375 29.1169Z" fill="#2E8B57"/>
<path d="M7.49458 0.284596C5.50772 -0.753538 1.59111 1.25226 0.466144 3.01915C-0.0357636 3.80978 0.000581669 4.38041 0.000581669 4.70354V21.9978L14.6874 31.0728L17.4496 29.5758V12.7336L2.36993 4.13635C3.1799 3.12571 4.99889 1.89164 6.36442 2.38664L19.7965 9.52124V28.285L22.5656 26.7845V8.02076L7.49458 0.284596Z" fill="#2E8B57"/>
</svg>
