<svg width="114" height="49" viewBox="0 0 114 49" fill="none" xmlns="http://www.w3.org/2000/svg">
<path d="M0 14.6444L0 35.1463C0 36.7639 1.30871 38.0752 2.92308 38.0752H23.3846C24.999 38.0752 26.3077 36.7639 26.3077 35.1463V14.6444C26.3077 13.0268 24.999 11.7155 23.3846 11.7155H2.92308C1.30871 11.7155 0 13.0268 0 14.6444Z" fill="url(#paint0_linear_105_3157)"/>
<path d="M17.9058 34.4105C18.3308 34.8619 18.9257 35.1423 19.584 35.1423C20.8758 35.1423 21.923 34.0626 21.923 32.7308V17.0558C21.923 15.724 20.8758 14.6443 19.584 14.6443C18.2922 14.6443 17.2451 15.724 17.2451 17.0558V26.0361L8.76237 15.7381C8.68744 15.6471 8.60745 15.5632 8.52317 15.4863C8.09516 14.9742 7.46188 14.6496 6.75476 14.6482C5.46296 14.6459 4.4139 15.7237 4.4116 17.0555L4.41016 17.898L16.6764 32.9063L17.6281 34.0619L17.6514 34.0897C17.6648 34.1097 17.6784 34.1297 17.6923 34.1494L17.9058 34.4105Z" fill="url(#paint1_linear_105_3157)"/>
<path d="M9.0753 25.4659L4.40717 19.7542L4.38477 32.7304C4.38247 34.0623 5.42781 35.144 6.71959 35.1463C8.01137 35.1486 9.06044 34.071 9.06275 32.7391L9.0753 25.4659Z" fill="url(#paint2_linear_105_3157)"/>
<path d="M29.8086 33.6819L33.5384 16.0912H37.1397L36.8181 19.3452H36.9467C37.3969 18.6364 37.8899 18.0136 38.4258 17.4766C38.9831 16.9396 39.594 16.5207 40.2586 16.2201C40.9232 15.9194 41.6627 15.769 42.4772 15.769C43.4846 15.769 44.3206 15.9839 44.9852 16.4134C45.6711 16.8215 46.1749 17.4014 46.4964 18.1531C46.8395 18.9048 47.0109 19.7962 47.0109 20.8272C47.0109 21.2138 46.9787 21.6541 46.9144 22.1481C46.8501 22.6207 46.7643 23.1253 46.6572 23.6623L44.5672 33.6819H39.8406L41.9949 23.4046C42.0807 23.0395 42.145 22.7065 42.1878 22.4058C42.2306 22.0837 42.2521 21.7937 42.2521 21.536C42.2521 20.8701 42.102 20.3868 41.802 20.0862C41.5233 19.764 41.1053 19.6029 40.548 19.6029C39.8406 19.6029 39.1975 19.9144 38.6187 20.5372C38.04 21.1387 37.5362 21.9548 37.1075 22.9857C36.7002 24.0167 36.3573 25.155 36.0786 26.4008L34.5352 33.6819H29.8086ZM57.0265 34.0041C55.6547 34.0041 54.4436 33.757 53.3931 33.2631C52.3642 32.7691 51.5497 32.0173 50.9495 31.0079C50.3707 29.9984 50.0813 28.7311 50.0813 27.2062C50.0813 25.7242 50.285 24.3067 50.6922 22.9535C51.121 21.5789 51.7426 20.3546 52.5571 19.2807C53.3931 18.2069 54.4221 17.3584 55.6439 16.7356C56.8658 16.0912 58.2805 15.769 59.8882 15.769C61.8604 15.769 63.3287 16.2201 64.2933 17.1222C65.2794 18.0243 65.7724 19.1734 65.7724 20.5694C65.7724 21.493 65.5581 22.3307 65.1293 23.0824C64.7221 23.8341 64.1004 24.4784 63.2644 25.0154C62.4499 25.5524 61.4103 25.9713 60.1455 26.2719C58.8808 26.5512 57.391 26.6907 55.6761 26.6907H54.8722C54.8509 26.8196 54.8401 26.9378 54.8401 27.0451C54.8401 27.1311 54.8401 27.2277 54.8401 27.3351C54.8401 28.2801 55.1081 29.0319 55.6439 29.5903C56.2013 30.1487 56.973 30.428 57.959 30.428C58.8808 30.428 59.7168 30.3206 60.467 30.1058C61.2173 29.891 62.1068 29.5474 63.1358 29.0748V32.651C62.2141 33.102 61.2817 33.4457 60.3384 33.6819C59.3952 33.8967 58.2913 34.0041 57.0265 34.0041ZM56.0941 23.5012C57.3159 23.5012 58.302 23.3723 59.0522 23.1146C59.8026 22.8569 60.3492 22.5132 60.6921 22.0837C61.0566 21.6326 61.2387 21.16 61.2387 20.6661C61.2387 20.1721 61.0887 19.8069 60.7885 19.5707C60.51 19.313 60.1133 19.1841 59.5988 19.1841C59.0201 19.1841 58.4413 19.3667 57.8625 19.7318C57.2838 20.0969 56.7693 20.6017 56.3191 21.246C55.8905 21.8903 55.5796 22.642 55.3867 23.5012H56.0941ZM68.7019 33.6819L67.898 16.0912H72.3031L72.3674 23.8878C72.3674 24.747 72.3568 25.606 72.3353 26.4652C72.3353 27.3029 72.2924 28.2156 72.2067 29.2037H72.3353C72.4854 28.6667 72.6783 28.0761 72.914 27.4317C73.1499 26.7659 73.3642 26.1646 73.5571 25.6276C73.7715 25.0906 73.9216 24.7255 74.0073 24.5322L77.6407 16.0912H82.7853V24.5322C82.7853 25.2625 82.7746 26.0035 82.7531 26.7552C82.7531 27.5069 82.7103 28.3231 82.6245 29.2037H82.7853C82.9354 28.7097 83.1176 28.1298 83.3319 27.464C83.5678 26.7981 83.8035 26.143 84.0393 25.4987C84.2752 24.8328 84.4788 24.296 84.6502 23.8878L88.0907 16.0912H92.9137L84.5859 33.6819H79.4091L79.3127 25.4987C79.3127 25.0477 79.3127 24.5106 79.3127 23.8878C79.3341 23.2435 79.3556 22.5884 79.377 21.9226C79.4199 21.2567 79.4521 20.6661 79.4734 20.1506H79.2805C79.1091 20.6661 78.9055 21.246 78.6696 21.8903C78.4553 22.5132 78.2409 23.1146 78.0265 23.6945C77.8122 24.2744 77.6193 24.7684 77.4477 25.1765L73.7822 33.6819H68.7019ZM96.9036 34.0041C95.789 34.0041 94.8136 33.9181 93.9776 33.7463C93.1416 33.596 92.3592 33.3382 91.6303 32.9731V29.0748C92.4235 29.5259 93.238 29.8803 94.074 30.138C94.91 30.3742 95.7675 30.4924 96.6463 30.4924C97.1395 30.4924 97.6003 30.428 98.029 30.2991C98.4791 30.1487 98.8328 29.934 99.09 29.6547C99.3688 29.3755 99.508 29.0211 99.508 28.5916C99.508 28.2909 99.4331 28.0332 99.283 27.8183C99.1544 27.5821 98.8971 27.3244 98.5113 27.0451C98.1469 26.7659 97.6003 26.4223 96.8714 26.0142C96.1427 25.606 95.521 25.1872 95.0065 24.7577C94.5135 24.3282 94.1277 23.8449 93.849 23.3079C93.5917 22.7495 93.4631 22.1052 93.4631 21.3749C93.4631 20.1506 93.7312 19.1303 94.267 18.3142C94.8029 17.4766 95.5639 16.8429 96.5499 16.4134C97.5575 15.9839 98.7578 15.769 100.151 15.769C101.159 15.769 102.134 15.8872 103.077 16.1234C104.02 16.3383 104.942 16.714 105.842 17.251L104.299 20.6339C103.677 20.2688 103.013 19.9573 102.305 19.6996C101.62 19.4418 100.934 19.313 100.248 19.313C99.7331 19.313 99.2723 19.4418 98.865 19.6996C98.4578 19.9358 98.254 20.301 98.254 20.795C98.254 21.0742 98.3292 21.332 98.4791 21.5682C98.6292 21.783 98.8758 22.0085 99.2187 22.2447C99.5617 22.4596 100.033 22.728 100.633 23.0502C101.341 23.4153 101.973 23.8234 102.531 24.2744C103.088 24.704 103.517 25.2194 103.817 25.8209C104.138 26.4008 104.299 27.088 104.299 27.8828C104.299 29.2144 103.988 30.342 103.367 31.2656C102.766 32.1677 101.909 32.8549 100.794 33.3275C99.701 33.7786 98.4041 34.0041 96.9036 34.0041Z" fill="#1484FF"/>
<defs>
<linearGradient id="paint0_linear_105_3157" x1="0" y1="24.8954" x2="26.3077" y2="24.8954" gradientUnits="userSpaceOnUse">
<stop stop-color="#62B0FA"/>
<stop offset="1" stop-color="#3E92F0"/>
</linearGradient>
<linearGradient id="paint1_linear_105_3157" x1="6.75495" y1="14.6485" x2="6.71732" y2="35.1464" gradientUnits="userSpaceOnUse">
<stop offset="1" stop-color="white"/>
</linearGradient>
<linearGradient id="paint2_linear_105_3157" x1="6.75518" y1="14.6486" x2="6.71756" y2="35.1464" gradientUnits="userSpaceOnUse">
<stop offset="1" stop-color="white"/>
</linearGradient>
</defs>
</svg>
