<svg width="103" height="32" viewBox="0 0 103 32" fill="none" xmlns="http://www.w3.org/2000/svg">
<path d="M0 25.5476V5.41675H10.0654C12.4965 5.41675 14.3731 6.01385 15.7379 7.20805C17.1027 8.40225 17.7851 10.1509 17.7851 12.4114C17.7851 14.7145 17.1027 16.4205 15.7379 17.6573C14.3731 18.8515 12.4965 19.4486 10.0654 19.4486H3.92381V25.5902H0V25.5476ZM10.0654 8.57285H3.92381V16.3352H10.0654C11.2596 16.3352 12.1553 15.994 12.7524 15.3542C13.3921 14.7145 13.6907 13.7335 13.6907 12.4114C13.6907 11.1319 13.3921 10.1509 12.7524 9.51116C12.1553 8.87141 11.2596 8.57285 10.0654 8.57285Z" fill="black"/>
<path d="M20.2168 3.11353V0.0427246H24.2259V3.11353H20.2168ZM20.2594 19.4485V5.41664H24.2259V19.4485H20.2594Z" fill="black"/>
<path d="M34.3759 19.5764C31.9449 19.5764 30.0683 18.9793 28.7034 17.7851C27.3386 16.5909 26.6562 14.7996 26.6562 12.4539C26.6562 10.1081 27.3386 8.31681 28.7034 7.1226C30.0683 5.9284 31.9449 5.3313 34.3759 5.3313H43.503V8.44476H34.3759C33.1817 8.44476 32.2861 8.78596 31.689 9.42571C31.0492 10.0655 30.7507 11.0891 30.7507 12.4539C30.7507 13.8187 31.0492 14.8423 31.689 15.482C32.3287 16.1218 33.2244 16.463 34.3759 16.463H43.7589V19.5764H34.3759Z" fill="black"/>
<path d="M45.8066 19.4485V0H49.7731V5.45921H59.1988C60.7768 5.45921 62.0137 5.84306 62.8667 6.56812C63.7197 7.33582 64.1462 8.40207 64.1462 9.80952C64.1462 12.1126 63.0373 13.4774 60.8621 13.9039L64.1888 19.4911H59.7532L56.5545 14.0745H49.8157V19.4911H45.8066V19.4485ZM58.9855 8.53002H49.7731V10.9184H58.9855C59.3694 10.9184 59.6253 10.7905 59.8385 10.5772C60.0518 10.364 60.1371 10.0654 60.1371 9.68157C60.1797 8.91387 59.7532 8.53002 58.9855 8.53002Z" fill="black"/>
<path d="M73.5283 19.5764C71.0972 19.5764 69.2206 18.9793 67.8558 17.7851C66.491 16.5909 65.8086 14.7996 65.8086 12.4539C65.8086 10.1081 66.491 8.31681 67.8558 7.1226C69.2206 5.9284 71.0972 5.3313 73.5283 5.3313H80.3523C81.9303 5.3313 83.1672 5.71515 84.0202 6.4402C84.8732 7.2079 85.2997 8.27416 85.2997 9.68161C85.2997 12.5392 83.6363 13.9466 80.3523 13.9466H70.0736C70.4575 15.6526 71.609 16.463 73.5709 16.463H84.5746V19.5764H73.5283ZM73.5283 8.40211C71.6517 8.40211 70.5001 9.21246 70.0736 10.7905H80.139C80.5229 10.7905 80.7788 10.6626 80.992 10.4493C81.2053 10.2361 81.2906 9.93751 81.2906 9.55366C81.2906 8.78596 80.9067 8.40211 80.139 8.40211H73.5283Z" fill="black"/>
<path d="M87.6875 19.4486V5.41675H98.3927C99.9707 5.41675 101.122 5.8006 101.89 6.61095C102.615 7.4213 102.999 8.4449 102.999 9.72441V12.6246H98.9898V10.1936C98.9898 9.08466 98.4353 8.57285 97.3691 8.57285H91.6966V19.4486H87.6875Z" fill="black"/>
<path d="M103 29.5564H0V31.0492H103V29.5564Z" fill="black"/>
<path d="M31.7743 29.5564H0V31.0492H31.7743V29.5564Z" fill="#6B30E9"/>
<path d="M10.5351 12.3261L6.86719 10.1936V14.416L10.5351 12.3261Z" fill="black"/>
</svg>
