<svg width="72" height="24" viewBox="0 0 72 24" fill="none" xmlns="http://www.w3.org/2000/svg">
<rect width="72" height="24" fill="#5FA04E"/>
<g clip-path="url(#clip0_213_136)">
<path fill-rule="evenodd" clip-rule="evenodd" d="M27.5883 11.2839C27.5883 11.1562 27.521 11.0389 27.4108 10.9754L24.4714 9.28421C24.4218 9.25506 24.3662 9.2398 24.3098 9.23772H24.2794C24.2231 9.2398 24.1675 9.25506 24.117 9.28421L21.1778 10.9754C21.0683 11.0393 21 11.1565 21 11.2842L21.0065 15.8395C21.0065 15.9026 21.0391 15.9616 21.0946 15.9928C21.1487 16.0261 21.2167 16.0261 21.2709 15.9928L23.0183 14.9921C23.1286 14.9265 23.1959 14.8104 23.1959 14.684V12.5559C23.1959 12.4289 23.2632 12.3117 23.3732 12.2485L24.1172 11.82C24.1724 11.7881 24.2331 11.7723 24.2948 11.7723C24.3556 11.7723 24.4177 11.788 24.4714 11.82L25.215 12.2483C25.325 12.3114 25.3926 12.4287 25.3926 12.5557V14.6836C25.3926 14.81 25.4608 14.9265 25.5706 14.9918L27.3169 15.9918C27.3718 16.0244 27.44 16.0244 27.4946 15.9918C27.5484 15.9606 27.5826 15.9016 27.5826 15.8384L27.5883 11.2839ZM41.4585 13.6556C41.4585 13.6873 41.4417 13.7167 41.4141 13.7324L40.4045 14.3143C40.3771 14.3301 40.3432 14.3301 40.3159 14.3143L39.3062 13.7324C39.2784 13.7166 39.2618 13.6872 39.2618 13.6556V12.49C39.2618 12.4582 39.2784 12.4289 39.3055 12.413L40.3145 11.83C40.3423 11.8141 40.3763 11.8141 40.404 11.83L41.4138 12.413C41.4415 12.4289 41.4582 12.4582 41.4582 12.49L41.4585 13.6556ZM41.7313 5.02247C41.6762 4.9918 41.6091 4.99263 41.5547 5.02434C41.5006 5.05627 41.4671 5.11456 41.4671 5.17771V9.68852C41.4671 9.73293 41.4435 9.77388 41.4051 9.79608C41.3669 9.81829 41.3194 9.81829 41.2809 9.79608L40.5446 9.372C40.4349 9.30857 40.2999 9.30857 40.1898 9.372L37.2495 11.069C37.1396 11.1321 37.0718 11.2494 37.0718 11.3757V14.7706C37.0718 14.8976 37.1396 15.0142 37.2495 15.078L40.1898 16.7762C40.2996 16.8393 40.4348 16.8393 40.5449 16.7762L43.4853 15.0773C43.5949 15.0135 43.6629 14.8969 43.6629 14.7699V6.30902C43.6629 6.18022 43.5928 6.06176 43.4804 5.99882L41.7313 5.02247ZM51.5227 12.4593C51.6319 12.3959 51.6992 12.2788 51.6992 12.1525V11.3297C51.6992 11.2031 51.6319 11.0863 51.5224 11.0226L48.6008 9.32654C48.4905 9.2627 48.3551 9.2627 48.2448 9.32654L45.3051 11.0233C45.1948 11.0871 45.1275 11.2037 45.1275 11.3307V14.7242C45.1275 14.8519 45.1962 14.9699 45.3065 15.0331L48.2274 16.6979C48.335 16.7597 48.4669 16.7604 48.5758 16.7L50.3427 15.718C50.3982 15.6868 50.4336 15.6278 50.4336 15.564C50.4336 15.5001 50.3996 15.4404 50.3441 15.4092L47.3864 13.7117C47.3308 13.6805 47.2968 13.6215 47.2968 13.5584V12.4938C47.2968 12.4303 47.3301 12.3717 47.3857 12.34L48.3059 11.8092C48.3607 11.7772 48.428 11.7772 48.4828 11.8092L49.4037 12.34C49.4585 12.3713 49.4926 12.4303 49.4926 12.4934V13.3303C49.4926 13.3935 49.5266 13.4525 49.5814 13.4844C49.6362 13.5156 49.7042 13.5156 49.759 13.4837L51.5227 12.4593Z" fill="white"/>
<path fill-rule="evenodd" clip-rule="evenodd" d="M48.3798 12.3005C48.4006 12.2882 48.4267 12.2882 48.4478 12.3005L49.012 12.6259C49.0331 12.6382 49.046 12.6606 49.046 12.6849V13.3366C49.046 13.3609 49.0331 13.3833 49.012 13.3956L48.4478 13.721C48.4267 13.7333 48.4006 13.7333 48.3798 13.721L47.8159 13.3956C47.7944 13.3833 47.7812 13.3609 47.7812 13.3366V12.6849C47.7812 12.6606 47.7937 12.6382 47.8153 12.6259L48.3798 12.3005Z" fill="white"/>
<mask id="mask0_213_136" style="mask-type:luminance" maskUnits="userSpaceOnUse" x="29" y="9" width="7" height="8">
<path d="M32.1531 9.34358L29.2294 11.0311C29.1199 11.0943 29.0527 11.2108 29.0527 11.3369V14.7143C29.0527 14.8404 29.1199 14.9569 29.2294 15.02L32.1533 16.7089C32.2626 16.7718 32.3974 16.7718 32.5066 16.7089L35.43 15.02C35.5389 14.9569 35.6062 14.8403 35.6062 14.7143V11.3369C35.6062 11.2108 35.5389 11.0943 35.4293 11.0311L32.5063 9.34358C32.4515 9.31214 32.3904 9.29639 32.3293 9.29639C32.2682 9.29639 32.2072 9.31214 32.1524 9.34358" fill="white"/>
</mask>
<g mask="url(#mask0_213_136)">
<path d="M38.5603 10.7445L30.3219 6.7063L26.0977 15.3236L34.3359 19.362L38.5603 10.7445Z" fill="url(#paint0_linear_213_136)"/>
</g>
<mask id="mask1_213_136" style="mask-type:luminance" maskUnits="userSpaceOnUse" x="29" y="9" width="7" height="8">
<path d="M29.127 14.9287C29.1549 14.965 29.1899 14.9965 29.231 15.0201L31.7391 16.4687L32.1568 16.7088C32.2193 16.7449 32.2905 16.7602 32.3604 16.755C32.3838 16.7531 32.4071 16.7487 32.4298 16.7423L35.5134 11.0961C35.4898 11.0705 35.4622 11.049 35.4313 11.0309L33.5169 9.92542L32.5049 9.34318C32.4762 9.32652 32.445 9.31472 32.4133 9.3064L29.127 14.9287Z" fill="white"/>
</mask>
<g mask="url(#mask1_213_136)">
<path d="M25.5645 11.939L31.3817 19.8123L39.075 14.1282L33.2575 6.25513L25.5645 11.939Z" fill="url(#paint1_linear_213_136)"/>
</g>
<mask id="mask2_213_136" style="mask-type:luminance" maskUnits="userSpaceOnUse" x="29" y="9" width="7" height="8">
<path d="M32.2949 9.29819C32.2458 9.30305 32.1979 9.31832 32.1537 9.34344L29.2383 11.0261L32.382 16.7521C32.4257 16.7458 32.4687 16.7312 32.5076 16.7088L35.4313 15.0199C35.5215 14.9676 35.5833 14.879 35.602 14.7787L32.3972 9.30395C32.3736 9.2993 32.35 9.29688 32.3258 9.29688C32.316 9.29688 32.3063 9.29736 32.2966 9.29826" fill="white"/>
</mask>
<g mask="url(#mask2_213_136)">
<path d="M29.2383 9.29688V16.7522H35.6008V9.29688H29.2383Z" fill="url(#paint2_linear_213_136)"/>
</g>
</g>
<defs>
<linearGradient id="paint0_linear_213_136" x1="34.4386" y1="8.71906" x2="30.2147" y2="17.3358" gradientUnits="userSpaceOnUse">
<stop offset="0.3" stop-color="#3E863D"/>
<stop offset="0.5" stop-color="#55934F"/>
<stop offset="0.8" stop-color="#5AAD45"/>
</linearGradient>
<linearGradient id="paint1_linear_213_136" x1="28.5079" y1="15.9207" x2="36.2016" y2="10.236" gradientUnits="userSpaceOnUse">
<stop offset="0.57" stop-color="#3E863D"/>
<stop offset="0.72" stop-color="#619857"/>
<stop offset="1" stop-color="#76AC64"/>
</linearGradient>
<linearGradient id="paint2_linear_213_136" x1="29.2404" y1="13.0247" x2="35.602" y2="13.0247" gradientUnits="userSpaceOnUse">
<stop offset="0.16" stop-color="#6BBF47"/>
<stop offset="0.38" stop-color="#79B461"/>
<stop offset="0.47" stop-color="#75AC64"/>
<stop offset="0.7" stop-color="#659E5A"/>
<stop offset="0.9" stop-color="#3E863D"/>
</linearGradient>
<clipPath id="clip0_213_136">
<rect width="30.6992" height="18.8017" fill="white" transform="translate(21 5)"/>
</clipPath>
</defs>
</svg>
