<svg width="72" height="24" viewBox="0 0 72 24" fill="none" xmlns="http://www.w3.org/2000/svg">
<rect width="72" height="24" fill="#CC0000"/>
<path d="M17 11.6875V17.9583H22.1771H27.3542V18.9792V20H31.5104H35.6667V18.9792V17.9583H45H54.3333V11.6875V5.41666H35.6667H17V11.6875ZM27.3542 11.6875V15.9167H26.3333H25.3125V12.7812V9.64583H24.2917H23.2708V12.7812V15.9167H21.1563H19.0417V11.6875V7.45833H23.1979H27.3542V11.6875ZM37.825 11.6437L37.7813 15.8437L35.7104 15.8875L33.625 15.9312V16.9375V17.9583H31.5104H29.3958V12.7083V7.45833H33.625H37.8688L37.825 11.6437ZM52.2917 11.6875V15.9167H51.1979H50.1042V12.7812V9.64583H49.1563H48.2083L48.1792 12.7375L48.1354 15.8437L47.0854 15.8875L46.0208 15.9312V12.7812V9.64583H45H43.9792V12.7812V15.9167H41.8646H39.75V11.6875V7.45833H46.0208H52.2917V11.6875Z" fill="white"/>
<path d="M33.625 11.6873V13.729H34.6458H35.6667V11.6873V9.64567H34.6458H33.625V11.6873Z" fill="white"/>
</svg>
