<svg width="72" height="24" viewBox="0 0 72 24" fill="none" xmlns="http://www.w3.org/2000/svg">
<rect width="72" height="24" fill="#F96473"/>
<g clip-path="url(#clip0_204_47)">
<path d="M22.0527 5.0127V16.7283L23.5256 16.734V11.1576H27.084V9.68169H23.5256V6.48863H28.1577V5.0127H22.0527ZM30.8166 7.39026C31.3507 7.39026 31.7779 6.94806 31.7779 6.40822C31.7779 5.86839 31.3451 5.42619 30.8166 5.42619C30.2826 5.42619 29.8554 5.86839 29.8554 6.40822C29.8554 6.94806 30.2882 7.39026 30.8166 7.39026ZM30.069 8.86619V16.7283H31.5418V8.86619H30.069Z" fill="white"/>
<path fill-rule="evenodd" clip-rule="evenodd" d="M37.0115 8.63623C35.0496 8.63623 33.6836 10.3304 33.6836 12.3404C33.6836 14.3504 35.0496 16.0446 37.0115 16.0446C37.911 16.0446 38.6474 15.6885 39.187 15.1142V16.1537C39.187 17.4574 38.1864 18.5428 36.8766 18.5428C36.4044 18.5428 35.9378 18.359 35.5668 18.0948L34.8248 19.4042C35.415 19.7947 36.1177 20.0187 36.871 20.0187C38.9622 20.0187 40.6542 18.2901 40.6542 16.1537V8.86595H39.187V9.56658C38.6474 8.99229 37.911 8.63623 37.0115 8.63623ZM35.162 12.3404C35.162 11.0942 36.0952 10.1122 37.1745 10.1122C38.2539 10.1122 39.187 11.0942 39.187 12.3404C39.187 13.5866 38.2539 14.5687 37.1745 14.5687C36.0952 14.5687 35.162 13.5866 35.162 12.3404Z" fill="white"/>
<path d="M45.9782 10.1122C45.1069 10.1122 44.3986 10.8702 44.3986 11.7604V16.728H42.9258V8.86595H44.3986V9.58381C44.8315 9.01526 45.4667 8.63623 46.2987 8.63623C47.333 8.63623 48.1257 9.15884 48.5866 9.96284C49.0982 9.18755 49.9302 8.63623 50.9364 8.63623C52.6172 8.63623 53.6628 10.0203 53.6684 11.7317V16.728H52.1956V11.7546C52.1956 10.8645 51.4873 10.1064 50.616 10.1064C49.7446 10.1064 49.0363 10.8645 49.0363 11.7546V16.728H47.5635V11.7546C47.5579 10.8645 46.8496 10.1122 45.9782 10.1122Z" fill="white"/>
<path fill-rule="evenodd" clip-rule="evenodd" d="M61.5271 9.7561C60.8694 9.06121 59.9699 8.63623 58.93 8.63623C56.7376 8.63623 55.1748 10.5371 55.1748 12.7998C55.1748 15.0626 56.732 16.9635 58.93 16.9635C59.9699 16.9635 60.8694 16.5327 61.5271 15.8436V16.728H62.9999V8.86595H61.5271V9.7561ZM56.6533 12.7998C56.6533 11.3009 57.7775 10.1122 59.093 10.1122C60.4028 10.1122 61.5327 11.2952 61.5327 12.7998C61.5327 14.2987 60.4084 15.4875 59.093 15.4875C57.7775 15.4818 56.6533 14.2987 56.6533 12.7998Z" fill="white"/>
<path d="M13.9521 12.6049C13.9521 11.2094 15.0596 10.0723 16.4312 10.0723C17.7972 10.0723 18.9103 11.2036 18.9103 12.6049C18.9103 14.0004 17.8029 15.1375 16.4312 15.1375C15.0652 15.1375 13.9521 14.0004 13.9521 12.6049Z" fill="#1ABCFE"/>
<path d="M9 17.6645C9 16.2689 10.1074 15.1318 11.4791 15.1318H13.9582V17.6645C13.9582 19.06 12.8507 20.1971 11.4791 20.1971C10.1074 20.1971 9 19.0657 9 17.6645Z" fill="#0ACF83"/>
<path d="M13.9521 5.01258V10.0721H16.4312C17.7972 10.0721 18.9103 8.94074 18.9103 7.53946C18.9103 6.14393 17.8029 5.00684 16.4312 5.00684H13.9521V5.01258Z" fill="#FF7262"/>
<path d="M9 7.54532C9 8.94085 10.1074 10.078 11.4791 10.078H13.9582V5.0127H11.4791C10.1074 5.0127 9 6.14405 9 7.54532Z" fill="#F24E1E"/>
<path d="M9 12.6049C9 14.0004 10.1074 15.1375 11.4791 15.1375H13.9582V10.0723H11.4791C10.1074 10.0723 9 11.2094 9 12.6049Z" fill="#A259FF"/>
</g>
<defs>
<clipPath id="clip0_204_47">
<rect width="54" height="15.2039" fill="white" transform="translate(9 5)"/>
</clipPath>
</defs>
</svg>
