<svg width="72" height="24" viewBox="0 0 72 24" fill="none" xmlns="http://www.w3.org/2000/svg">
<rect width="72" height="24" fill="#1E3359"/>
<path d="M13.0137 15.6624C13.0137 15.712 12.9581 15.7517 12.8879 15.7517C12.8081 15.7592 12.7524 15.7195 12.7524 15.6624C12.7524 15.6128 12.8081 15.5731 12.8782 15.5731C12.9508 15.5656 13.0137 15.6053 13.0137 15.6624ZM12.2613 15.5507C12.2444 15.6003 12.2927 15.6574 12.3653 15.6723C12.4282 15.6971 12.5008 15.6723 12.5153 15.6227C12.5298 15.5731 12.4839 15.516 12.4113 15.4937C12.3484 15.4763 12.2782 15.5011 12.2613 15.5507ZM13.3306 15.5085C13.2605 15.5259 13.2121 15.5731 13.2194 15.6301C13.2266 15.6798 13.2895 15.712 13.3621 15.6946C13.4323 15.6773 13.4806 15.6301 13.4734 15.5805C13.4661 15.5334 13.4008 15.5011 13.3306 15.5085ZM14.9226 6C11.5669 6 9 8.61286 9 12.0545C9 14.8063 10.6887 17.1611 13.1008 17.9899C13.4105 18.047 13.5194 17.8509 13.5194 17.6896C13.5194 17.5358 13.5121 16.6872 13.5121 16.1661C13.5121 16.1661 11.8185 16.5383 11.4629 15.4267C11.4629 15.4267 11.1871 14.7046 10.7903 14.5185C10.7903 14.5185 10.2363 14.1289 10.829 14.1364C10.829 14.1364 11.4315 14.186 11.7629 14.7765C12.2927 15.7343 13.1806 15.4589 13.5266 15.2951C13.5823 14.8981 13.7395 14.6227 13.9137 14.4589C12.5613 14.3051 11.1968 14.1041 11.1968 11.717C11.1968 11.0347 11.3806 10.6922 11.7677 10.2555C11.7048 10.0942 11.4992 9.42923 11.8306 8.57068C12.3363 8.40939 13.5 9.24065 13.5 9.24065C13.9839 9.10169 14.504 9.02973 15.0194 9.02973C15.5347 9.02973 16.0548 9.10169 16.5387 9.24065C16.5387 9.24065 17.7024 8.40691 18.2081 8.57068C18.5395 9.43171 18.3339 10.0942 18.271 10.2555C18.6581 10.6947 18.8952 11.0371 18.8952 11.717C18.8952 14.1115 17.4702 14.3026 16.1177 14.4589C16.3403 14.655 16.529 15.0272 16.529 15.6103C16.529 16.4465 16.5218 17.4812 16.5218 17.6847C16.5218 17.846 16.6331 18.042 16.9403 17.9849C19.3597 17.1611 21 14.8063 21 12.0545C21 8.61286 18.2782 6 14.9226 6ZM11.3516 14.5582C11.3202 14.583 11.3274 14.6401 11.3685 14.6872C11.4073 14.7269 11.4629 14.7443 11.4944 14.712C11.5258 14.6872 11.5185 14.6301 11.4774 14.583C11.4387 14.5433 11.3831 14.5259 11.3516 14.5582ZM11.0903 14.3572C11.0734 14.3894 11.0976 14.4292 11.146 14.454C11.1847 14.4788 11.2331 14.4713 11.25 14.4366C11.2669 14.4043 11.2427 14.3646 11.1944 14.3398C11.146 14.3249 11.1073 14.3324 11.0903 14.3572ZM11.8742 15.2406C11.8355 15.2728 11.85 15.3473 11.9056 15.3944C11.9613 15.4515 12.0315 15.4589 12.0629 15.4192C12.0944 15.387 12.0798 15.3125 12.0315 15.2654C11.9782 15.2083 11.9056 15.2009 11.8742 15.2406ZM11.5984 14.8758C11.5597 14.9006 11.5597 14.9651 11.5984 15.0222C11.6371 15.0793 11.7024 15.1041 11.7339 15.0793C11.7726 15.047 11.7726 14.9825 11.7339 14.9254C11.7 14.8684 11.6371 14.8435 11.5984 14.8758Z" fill="white"/>
<path d="M31.319 11.2801H28.1257C28.0862 11.2801 28.0482 11.2954 28.0202 11.3227C27.9922 11.3499 27.9765 11.3868 27.9765 11.4253V12.9446C27.9765 12.9831 27.9922 13.02 28.0202 13.0473C28.0482 13.0746 28.0861 13.0899 28.1257 13.09H29.3714V14.9774C29.3714 14.9774 29.0917 15.0703 28.3184 15.0703C27.4061 15.0703 26.1316 14.7458 26.1316 12.0187C26.1316 9.29113 27.4587 8.93217 28.7046 8.93217C29.7831 8.93217 30.2477 9.11704 30.5434 9.20597C30.6363 9.23369 30.7222 9.14375 30.7222 9.06345L31.0784 7.59565C31.0784 7.55815 31.0654 7.51288 31.0214 7.48216C30.9013 7.39885 30.1689 7 28.3184 7C26.1867 7 24 7.88262 24 12.1251C24 16.3679 26.5036 17 28.6132 17C30.36 17 31.4197 16.2736 31.4197 16.2736C31.4634 16.25 31.4681 16.1907 31.4681 16.1634V11.4253C31.4681 11.3452 31.4013 11.2801 31.319 11.2801ZM47.7756 7.50834C47.7758 7.48927 47.7721 7.47036 47.7647 7.45269C47.7573 7.43502 47.7464 7.41894 47.7327 7.40537C47.7189 7.39181 47.7025 7.38102 47.6844 7.37364C47.6664 7.36626 47.647 7.36242 47.6274 7.36235H45.8293C45.8097 7.36242 45.7903 7.36625 45.7722 7.37363C45.7541 7.381 45.7376 7.39177 45.7238 7.40533C45.71 7.41889 45.699 7.43496 45.6916 7.45263C45.6841 7.47031 45.6803 7.48923 45.6804 7.50834L45.6809 10.8895H42.8783V7.50834C42.8784 7.48926 42.8747 7.47034 42.8673 7.45267C42.86 7.435 42.8491 7.41893 42.8353 7.40536C42.8215 7.3918 42.8051 7.38102 42.787 7.37364C42.7689 7.36625 42.7495 7.36242 42.7299 7.36235H40.932C40.8924 7.36255 40.8546 7.37804 40.8267 7.40542C40.7989 7.4328 40.7833 7.46981 40.7835 7.50834V16.6636C40.7835 16.7443 40.8502 16.81 40.932 16.81H42.7299C42.8122 16.81 42.8783 16.7442 42.8783 16.6636V12.7475H45.6809L45.676 16.6636C45.676 16.7443 45.7428 16.81 45.825 16.81H47.6272C47.7096 16.81 47.7754 16.7442 47.7756 16.6636V7.50834ZM34.7118 8.7098C34.7118 8.07973 34.1928 7.57063 33.5524 7.57063C32.9126 7.57063 32.3932 8.07973 32.3932 8.7098C32.3932 9.3391 32.9126 9.84951 33.5524 9.84951C34.1928 9.84951 34.7118 9.3391 34.7118 8.7098ZM34.5832 14.7324V10.5063C34.5833 10.4678 34.5677 10.4308 34.5399 10.4034C34.512 10.3761 34.4741 10.3606 34.4345 10.3604H32.6422C32.56 10.3604 32.4864 10.4429 32.4864 10.5232V16.5778C32.4864 16.7558 32.6003 16.8087 32.7478 16.8087H34.3626C34.5398 16.8087 34.5832 16.724 34.5832 16.5751V14.7324ZM54.6086 10.3742H52.8244C52.7426 10.3742 52.676 10.4398 52.676 10.5205V15.0096C52.676 15.0096 52.2227 15.3324 51.5794 15.3324C50.9361 15.3324 50.7654 15.0484 50.7654 14.4354V10.5205C50.7654 10.4398 50.6988 10.3742 50.617 10.3742H48.8061C48.7245 10.3742 48.6575 10.4398 48.6575 10.5205V14.7317C48.6575 16.5524 49.7003 16.9978 51.1349 16.9978C52.3118 16.9978 53.2606 16.3652 53.2606 16.3652C53.2606 16.3652 53.3057 16.6986 53.3262 16.7381C53.3467 16.7776 53.3999 16.8174 53.4574 16.8174L54.6095 16.8124C54.6912 16.8124 54.7582 16.7467 54.7582 16.6663L54.7576 10.5206C54.7576 10.4398 54.6909 10.3742 54.6086 10.3742ZM58.7814 15.3269C58.1625 15.3085 57.7428 15.0352 57.7428 15.0352V12.136C57.7428 12.136 58.1568 11.889 58.6649 11.8448C59.3074 11.7888 59.9265 11.9777 59.9265 13.4691C59.9266 15.0418 59.6472 15.3522 58.7814 15.3269ZM59.4851 10.1686C58.4717 10.1686 57.7825 10.6085 57.7825 10.6085V7.50841C57.7825 7.42756 57.7161 7.36235 57.6341 7.36235H55.8311C55.8114 7.36244 55.792 7.36629 55.774 7.37368C55.7559 7.38107 55.7395 7.39186 55.7257 7.40542C55.7119 7.41899 55.7009 7.43506 55.6935 7.45273C55.6861 7.47041 55.6824 7.48932 55.6825 7.50841V16.6636C55.6825 16.7443 55.7491 16.81 55.8313 16.81H57.0824C57.1386 16.81 57.1813 16.7817 57.2128 16.7323C57.2439 16.6831 57.2887 16.3102 57.2887 16.3102C57.2887 16.3102 58.026 16.9901 59.4217 16.9901C61.0603 16.9901 62 16.1813 62 13.3593C62 10.5373 60.4992 10.1686 59.4851 10.1686ZM39.7508 10.3596H38.402L38.4 8.62572C38.4 8.56012 38.3652 8.52731 38.2873 8.52731H36.4494C36.3779 8.52731 36.3395 8.55796 36.3395 8.62472V10.4165C36.3395 10.4165 35.4185 10.6328 35.3562 10.6504C35.3252 10.6591 35.2979 10.6775 35.2784 10.7026C35.259 10.7278 35.2485 10.7584 35.2485 10.7899V11.9158C35.2485 11.9968 35.315 12.0619 35.3972 12.0619H36.3395V14.7705C36.3395 16.7825 37.7898 16.9801 38.7684 16.9801C39.2155 16.9801 39.7504 16.8405 39.8387 16.8086C39.8921 16.7895 39.9232 16.7357 39.9232 16.6773L39.9247 15.4387C39.9247 15.3579 39.8546 15.2927 39.7756 15.2927C39.697 15.2927 39.496 15.3238 39.289 15.3238C38.6265 15.3238 38.402 15.024 38.402 14.636L38.402 12.0619H39.7508C39.833 12.0619 39.8995 11.9967 39.8995 11.9157V10.5054C39.8996 10.4863 39.8958 10.4674 39.8884 10.4497C39.881 10.4321 39.87 10.416 39.8562 10.4025C39.8424 10.3889 39.826 10.3782 39.8079 10.3708C39.7898 10.3635 39.7704 10.3597 39.7508 10.3596Z" fill="white"/>
</svg>
