<svg width="72" height="24" viewBox="0 0 72 24" fill="none" xmlns="http://www.w3.org/2000/svg">
<rect width="72" height="24" fill="black"/>
<path d="M36.4423 9.75C34.4508 9.75 33.0149 10.9875 33.0149 12.8438C33.0149 14.7 34.6312 15.9375 36.6227 15.9375C37.8259 15.9375 38.8866 15.4838 39.5432 14.7189L38.1632 13.9592C37.7988 14.3391 37.245 14.5608 36.6227 14.5608C35.7586 14.5608 35.0244 14.1311 34.752 13.4436H39.8066C39.8462 13.2511 39.8697 13.0517 39.8697 12.842C39.8697 10.9875 38.4338 9.75 36.4423 9.75ZM34.7358 12.2422C34.9613 11.5564 35.5782 11.125 36.4405 11.125C37.3045 11.125 37.9215 11.5564 38.1452 12.2422H34.7358ZM55.8667 9.75C53.8752 9.75 52.4393 10.9875 52.4393 12.8438C52.4393 14.7 54.0556 15.9375 56.0471 15.9375C57.2503 15.9375 58.311 15.4838 58.9676 14.7189L57.5877 13.9592C57.2233 14.3391 56.6695 14.5608 56.0471 14.5608C55.183 14.5608 54.4489 14.1311 54.1765 13.4436H59.231C59.2707 13.2511 59.2941 13.0517 59.2941 12.842C59.2941 10.9875 57.8582 9.75 55.8667 9.75ZM54.162 12.2422C54.3875 11.5564 55.0045 11.125 55.8667 11.125C56.7308 11.125 57.3477 11.5564 57.5714 12.2422H54.162ZM47.1214 12.8438C47.1214 13.875 47.8285 14.5625 48.9253 14.5625C49.6685 14.5625 50.2259 14.2411 50.5127 13.7169L51.8981 14.4783C51.3245 15.3892 50.2494 15.9375 48.9253 15.9375C46.932 15.9375 45.4979 14.7 45.4979 12.8438C45.4979 10.9875 46.9338 9.75 48.9253 9.75C50.2494 9.75 51.3227 10.2983 51.8981 11.2092L50.5127 11.9706C50.2259 11.4464 49.6685 11.125 48.9253 11.125C47.8303 11.125 47.1214 11.8125 47.1214 12.8438ZM62 7.85938V15.7656H60.3765V7.85938H62ZM17.6654 7L24.3309 18H11L17.6654 7ZM34.3299 7.85938L29.3313 16.1094L24.3327 7.85938H26.2069L29.3313 13.0156L32.4556 7.85938H34.3299ZM44.9567 9.92188V11.5873C44.7763 11.5375 44.5851 11.5031 44.3795 11.5031C43.3314 11.5031 42.5756 12.1906 42.5756 13.2219V15.7656H40.952V9.92188H42.5756V11.5031C42.5756 10.63 43.6417 9.92188 44.9567 9.92188Z" fill="white"/>
</svg>
