<svg width="72" height="24" viewBox="0 0 72 24" fill="none" xmlns="http://www.w3.org/2000/svg">
<rect width="72" height="24" fill="black"/>
<path d="M27.0254 7.32603L33.4405 7.32603L33.4405 7.83346L27.6134 7.83346L27.6134 11.6525L33.093 11.6525L33.093 12.16L27.6134 12.16L27.6134 16.3529L33.5073 16.3529L33.5073 16.8603L27.0254 16.8603L27.0254 7.32603ZM34.0151 7.32603L34.6967 7.32603L37.7172 11.519L40.8044 7.32603L45.0036 2L38.1047 11.9597L41.6598 16.8603L40.9514 16.8603L37.7172 12.4003L34.4695 16.8603L33.7746 16.8603L37.3563 11.9597L34.0151 7.32603ZM41.9137 7.83346L41.9137 7.32603L49.2242 7.32603L49.2242 7.83346L45.8563 7.83346L45.8563 16.8603L45.2682 16.8603L45.2682 7.83346L41.9137 7.83346Z" fill="white"/>
<path d="M19 7.32593L19.7351 7.32593L29.8711 22.4207L25.6824 16.8602L19.6148 8.04701L19.588 16.8602L19 16.8602L19 7.32593Z" fill="white"/>
<path d="M49.1653 16.1996C49.2869 16.1996 49.3756 16.107 49.3756 15.9872C49.3756 15.8675 49.2869 15.7749 49.1653 15.7749C49.0452 15.7749 48.9551 15.8675 48.9551 15.9872C48.9551 16.107 49.0452 16.1996 49.1653 16.1996ZM49.7432 15.6409C49.7432 15.9944 49.9992 16.2253 50.3725 16.2253C50.7701 16.2253 51.0104 15.9872 51.0104 15.5739L51.0104 14.1187L50.69 14.1187L50.69 15.5725C50.69 15.802 50.5741 15.9245 50.3696 15.9245C50.1865 15.9245 50.0621 15.8105 50.0578 15.6409L49.7432 15.6409ZM51.4294 15.6224C51.4523 15.9901 51.7598 16.2253 52.2175 16.2253C52.7067 16.2253 53.0127 15.9787 53.0127 15.5853C53.0127 15.276 52.8383 15.105 52.4149 15.0067L52.1875 14.9511C51.9186 14.8884 51.8099 14.8043 51.8099 14.6575C51.8099 14.4722 51.9787 14.351 52.2318 14.351C52.4721 14.351 52.638 14.4693 52.668 14.6589L52.9798 14.6589C52.9613 14.3126 52.6552 14.0688 52.2361 14.0688C51.7856 14.0688 51.4852 14.3126 51.4852 14.6789C51.4852 14.981 51.6554 15.1606 52.0287 15.2475L52.2947 15.3117C52.5679 15.3758 52.6881 15.4699 52.6881 15.6266C52.6881 15.8091 52.4993 15.9416 52.2418 15.9416C51.9658 15.9416 51.7741 15.8176 51.747 15.6224L51.4294 15.6224Z" fill="white"/>
</svg>
