<svg width="72" height="24" viewBox="0 0 72 24" fill="none" xmlns="http://www.w3.org/2000/svg">
<rect width="72" height="24" fill="#F7DF1E"/>
<path d="M25.0001 17.0616L27.554 15.4778C28.0468 16.373 28.495 17.1304 29.5701 17.1304C30.6007 17.1304 31.2506 16.7173 31.2506 15.1106V4.18381H34.3868V15.156C34.3868 18.4845 32.4826 19.9996 29.7045 19.9996C27.1956 19.9996 25.7393 18.6682 25 17.0613M36.0903 16.7172L38.6439 15.2022C39.3162 16.3271 40.1899 17.1535 41.7355 17.1535C43.0352 17.1535 43.8638 16.4877 43.8638 15.5695C43.8638 14.4677 43.0125 14.0773 41.5787 13.4348L40.7948 13.0902C38.532 12.1034 37.0311 10.8637 37.0311 8.24686C37.0311 5.8365 38.8233 4 41.6237 4C43.6175 4 45.0513 4.71173 46.0817 6.57107L43.6397 8.17806C43.1019 7.19102 42.5197 6.80083 41.6236 6.80083C40.705 6.80083 40.1225 7.39767 40.1225 8.17806C40.1225 9.14213 40.705 9.53259 42.0491 10.1294L42.8331 10.4737C45.4991 11.6445 47 12.8381 47 15.5236C47 18.4162 44.7822 20 41.8027 20C38.8904 20 37.0086 18.5768 36.0901 16.7173" fill="black"/>
</svg>
