<svg width="72" height="24" viewBox="0 0 72 24" fill="none" xmlns="http://www.w3.org/2000/svg">
<rect width="72" height="24" fill="#CD6799"/>
<path d="M46.2491 13.9224C45.3072 13.927 44.4885 14.1399 43.803 14.4545C43.5515 13.9871 43.3 13.5707 43.2556 13.2652C43.2063 12.9089 43.1471 12.6914 43.2063 12.2657C43.2655 11.8399 43.5318 11.2337 43.5268 11.1874C43.5219 11.1412 43.4677 10.9237 42.9252 10.919C42.3827 10.9144 41.9142 11.0162 41.8599 11.1504C41.8057 11.2846 41.7021 11.59 41.6331 11.9047C41.5394 12.3675 40.5481 14.0195 39.981 14.8849C39.7985 14.5471 39.6407 14.2509 39.6062 14.0149C39.5569 13.6586 39.4977 13.4411 39.5569 13.0153C39.616 12.5896 39.8823 11.9834 39.8774 11.9371C39.8725 11.8908 39.8182 11.6733 39.2758 11.6687C38.7333 11.6641 38.2648 11.7659 38.2105 11.9001C38.1563 12.0343 38.0971 12.349 37.9837 12.6544C37.8702 12.9598 36.5535 15.7179 36.2083 16.4305C36.0307 16.7961 35.8778 17.0876 35.7693 17.2866C35.7693 17.2866 35.7644 17.3005 35.7496 17.3236C35.6559 17.4949 35.6017 17.5874 35.6017 17.5874C35.6017 17.5874 35.6017 17.5874 35.6017 17.592C35.5277 17.717 35.4488 17.8327 35.4093 17.8327C35.3797 17.8327 35.3255 17.4995 35.4192 17.046C35.6165 16.0881 36.085 14.598 36.08 14.5471C36.08 14.5193 36.1688 14.2602 35.7743 14.126C35.3896 13.9918 35.2515 14.2139 35.217 14.2139C35.1825 14.2139 35.1578 14.2926 35.1578 14.2926C35.1578 14.2926 35.5869 12.6174 34.3392 12.6174C33.56 12.6174 32.4849 13.4179 31.9522 14.1399C31.6169 14.3111 30.9018 14.6767 30.1374 15.07C29.8464 15.2227 29.5456 15.3754 29.2645 15.5189C29.2448 15.5004 29.225 15.4772 29.2053 15.4587C27.6962 13.9455 24.9049 12.8765 25.0233 10.845C25.0677 10.1046 25.3389 8.16099 30.384 5.80092C34.5364 3.88046 37.8406 4.41264 38.4127 5.59268C39.2314 7.27712 36.6423 10.4054 32.3517 10.8589C30.7144 11.0301 29.8563 10.4378 29.6393 10.2156C29.4124 9.98427 29.3779 9.97039 29.2941 10.0167C29.156 10.0861 29.2448 10.2943 29.2941 10.4146C29.4223 10.7293 29.95 11.2846 30.8426 11.5577C31.6317 11.7983 33.5501 11.9325 35.8729 11.0903C38.4719 10.1462 40.5037 7.52239 39.907 5.32428C39.3103 3.09377 35.365 2.35798 31.6317 3.60281C29.4124 4.34322 27.0058 5.50938 25.2748 7.02723C23.2183 8.832 22.8928 10.4008 23.026 11.0579C23.5043 13.3902 26.9318 14.908 28.3028 16.0325C28.2338 16.0696 28.1697 16.102 28.1154 16.1297C27.4299 16.449 24.8161 17.7309 24.1652 19.0868C23.4254 20.6231 24.2835 21.7245 24.8507 21.8726C26.6113 22.3307 28.4212 21.507 29.3927 20.1465C30.3643 18.786 30.2459 17.0182 29.7971 16.2084C29.7922 16.1991 29.7872 16.1899 29.7774 16.1806C29.9549 16.0834 30.1374 15.9816 30.3149 15.8845C30.6651 15.6901 31.0103 15.5096 31.3062 15.3615C31.1385 15.7919 31.0152 16.3056 30.9561 17.046C30.8821 17.916 31.2618 19.0451 31.7599 19.4894C31.9818 19.6837 32.2432 19.6883 32.4109 19.6883C32.9928 19.6883 33.2542 19.2348 33.5452 18.698C33.9003 18.0409 34.2208 17.2774 34.2208 17.2774C34.2208 17.2774 33.8213 19.3413 34.9063 19.3413C35.3008 19.3413 35.7003 18.86 35.8778 18.6147C35.8778 18.6194 35.8778 18.6194 35.8778 18.6194C35.8778 18.6194 35.8877 18.6055 35.9074 18.5731C35.9469 18.5129 35.9715 18.4759 35.9715 18.4759C35.9715 18.4759 35.9715 18.4713 35.9715 18.4667C36.1294 18.2075 36.4844 17.6198 37.0121 16.6434C37.6927 15.3847 38.3486 13.8113 38.3486 13.8113C38.3486 13.8113 38.4078 14.1954 38.61 14.834C38.7283 15.2088 38.9749 15.6207 39.1722 16.0187C39.0144 16.2269 38.9157 16.3426 38.9157 16.3426C38.9157 16.3426 38.9157 16.3426 38.9207 16.3472C38.7925 16.5046 38.6544 16.6758 38.5015 16.8424C37.9639 17.444 37.3228 18.1335 37.234 18.3325C37.1305 18.5685 37.1551 18.7397 37.3524 18.8785C37.4954 18.9803 37.7519 18.9942 38.0132 18.9803C38.4966 18.9479 38.8368 18.8369 39.0045 18.7675C39.2659 18.6795 39.5717 18.5453 39.8577 18.3463C40.3854 17.9808 40.7059 17.4578 40.6763 16.7683C40.6615 16.3889 40.5284 16.0094 40.3656 15.6531C40.415 15.5883 40.4594 15.5235 40.5087 15.4587C41.3421 14.3157 41.9882 13.0616 41.9882 13.0616C41.9882 13.0616 42.0473 13.4457 42.2495 14.0843C42.3482 14.4083 42.5504 14.76 42.7279 15.1024C41.9438 15.6994 41.4605 16.3935 41.2879 16.847C40.9772 17.6892 41.2188 18.0687 41.6775 18.1566C41.8846 18.1983 42.1805 18.1057 42.3975 18.0178C42.6737 17.9345 42.9992 17.791 43.3098 17.5782C43.8375 17.2126 44.3455 16.7035 44.3159 16.014C44.3011 15.6994 44.2123 15.3893 44.089 15.0885C44.7548 14.8294 45.6129 14.6859 46.7078 14.8062C49.0552 15.0654 49.5188 16.4398 49.43 17.0182C49.3413 17.5967 48.8481 17.9113 48.6854 18.0085C48.5226 18.1057 48.4684 18.1381 48.4832 18.2075C48.5029 18.3093 48.5818 18.3047 48.7199 18.2862C48.9122 18.2538 49.9528 17.8188 49.9972 16.7544C50.0711 15.3939 48.6903 13.9085 46.2491 13.9224ZM28.1401 19.6513C27.3609 20.4473 26.2759 20.7481 25.8074 20.4935C25.3044 20.2205 25.5016 19.0451 26.4584 18.2029C27.0403 17.6892 27.7899 17.2126 28.288 16.921C28.4015 16.8563 28.5691 16.7637 28.7713 16.648C28.8059 16.6295 28.8256 16.6202 28.8256 16.6202C28.865 16.5971 28.9045 16.574 28.9439 16.5508C29.2941 17.754 28.9587 18.8137 28.1401 19.6513ZM33.8115 16.0325C33.5402 16.6526 32.9731 18.2399 32.6279 18.152C32.332 18.0779 32.1495 16.8748 32.5687 15.6855C32.7808 15.0885 33.2295 14.3759 33.4909 14.0982C33.915 13.654 34.3836 13.5059 34.497 13.6863C34.64 13.9224 33.9792 15.6438 33.8115 16.0325ZM38.4916 18.1335C38.3782 18.189 38.2697 18.226 38.2204 18.1983C38.1859 18.1797 38.2697 18.1057 38.2697 18.1057C38.2697 18.1057 38.8566 17.5134 39.0884 17.245C39.2215 17.0876 39.3793 16.9025 39.547 16.6943C39.547 16.7128 39.547 16.7359 39.547 16.7544C39.547 17.4625 38.8171 17.9391 38.4916 18.1335ZM42.1016 17.3607C42.0178 17.3051 42.0325 17.12 42.3137 16.5416C42.4221 16.3148 42.6786 15.9354 43.1175 15.5698C43.1668 15.7179 43.2014 15.8613 43.1964 15.9955C43.1915 16.8886 42.5109 17.2218 42.1016 17.3607Z" fill="white"/>
</svg>
