<svg width="72" height="24" viewBox="0 0 72 24" fill="none" xmlns="http://www.w3.org/2000/svg">
<rect width="72" height="24" fill="#0080FF"/>
<path d="M26.6719 9.4929C26.6188 9.02225 26.4001 8.65767 26.0156 8.39915C25.6312 8.13731 25.1473 8.00639 24.5639 8.00639C24.1463 8.00639 23.785 8.07268 23.4801 8.20526C23.1752 8.33452 22.9382 8.51349 22.7692 8.74219C22.6035 8.96757 22.5206 9.22443 22.5206 9.51278C22.5206 9.75473 22.5769 9.96354 22.6896 10.1392C22.8056 10.3149 22.9564 10.4624 23.142 10.5817C23.331 10.6977 23.5331 10.7955 23.7486 10.875C23.964 10.9512 24.1712 11.0142 24.37 11.0639L25.3643 11.3224C25.6892 11.402 26.0223 11.5097 26.3636 11.6456C26.705 11.7815 27.0215 11.9605 27.3132 12.1825C27.6049 12.4046 27.8402 12.6797 28.0192 13.0078C28.2015 13.3359 28.2926 13.7287 28.2926 14.1861C28.2926 14.7628 28.1435 15.2749 27.8452 15.7223C27.5502 16.1697 27.121 16.5227 26.5575 16.7812C25.9974 17.0398 25.3196 17.169 24.5241 17.169C23.7618 17.169 23.1023 17.0481 22.5455 16.8061C21.9886 16.5642 21.5528 16.2211 21.2379 15.777C20.9231 15.3295 20.7491 14.7992 20.7159 14.1861H22.2571C22.2869 14.554 22.4063 14.8606 22.6151 15.1058C22.8272 15.3478 23.0973 15.5284 23.4254 15.6477C23.7569 15.7637 24.1198 15.8217 24.5142 15.8217C24.9484 15.8217 25.3345 15.7538 25.6726 15.6179C26.014 15.4787 26.2824 15.2865 26.478 15.0412C26.6735 14.7926 26.7713 14.5026 26.7713 14.1712C26.7713 13.8696 26.6851 13.6226 26.5128 13.4304C26.3438 13.2382 26.1134 13.0791 25.8217 12.9531C25.5334 12.8272 25.2069 12.7161 24.8423 12.62L23.6392 12.2919C22.8239 12.0698 22.1776 11.7434 21.7003 11.3125C21.2263 10.8816 20.9893 10.3116 20.9893 9.60227C20.9893 9.01562 21.1484 8.50355 21.4666 8.06605C21.7848 7.62855 22.2157 7.28883 22.7592 7.04688C23.3028 6.80161 23.916 6.67898 24.5987 6.67898C25.2881 6.67898 25.8963 6.79995 26.4233 7.0419C26.9536 7.28385 27.3712 7.61695 27.6761 8.04119C27.9811 8.46212 28.1402 8.94602 28.1534 9.4929H26.6719ZM31.6646 17L29.4174 9.36364H30.9537L32.4501 14.9716H32.5247L34.0261 9.36364H35.5623L37.0538 14.9467H37.1284L38.6149 9.36364H40.1511L37.9089 17H36.3926L34.8414 11.4865H34.7271L33.176 17H31.6646ZM41.5618 17V9.36364H43.0483V17H41.5618ZM42.3125 8.18537C42.054 8.18537 41.8319 8.09919 41.6463 7.92685C41.464 7.75118 41.3729 7.54238 41.3729 7.30043C41.3729 7.05516 41.464 6.84635 41.6463 6.67401C41.8319 6.49834 42.054 6.41051 42.3125 6.41051C42.571 6.41051 42.7914 6.49834 42.9737 6.67401C43.1593 6.84635 43.2521 7.05516 43.2521 7.30043C43.2521 7.54238 43.1593 7.75118 42.9737 7.92685C42.7914 8.09919 42.571 8.18537 42.3125 8.18537ZM45.0481 19.8636V9.36364H46.4998V10.6016H46.6241C46.7103 10.4425 46.8346 10.2585 46.997 10.0497C47.1594 9.84091 47.3848 9.65862 47.6731 9.50284C47.9615 9.34375 48.3426 9.2642 48.8166 9.2642C49.4331 9.2642 49.9833 9.41998 50.4672 9.73153C50.9511 10.0431 51.3306 10.4922 51.6056 11.0788C51.8841 11.6655 52.0233 12.3714 52.0233 13.1967C52.0233 14.022 51.8857 14.7296 51.6106 15.3196C51.3355 15.9062 50.9577 16.3587 50.4771 16.6768C49.9965 16.9917 49.448 17.1491 48.8315 17.1491C48.3675 17.1491 47.988 17.0713 47.693 16.9155C47.4013 16.7597 47.1726 16.5774 47.0069 16.3686C46.8412 16.1598 46.7136 15.9742 46.6241 15.8118H46.5346V19.8636H45.0481ZM46.5048 13.1818C46.5048 13.7187 46.5827 14.1894 46.7385 14.5938C46.8942 14.9981 47.1196 15.3146 47.4146 15.5433C47.7096 15.7687 48.0708 15.8814 48.4984 15.8814C48.9425 15.8814 49.3137 15.7637 49.612 15.5284C49.9103 15.2898 50.1357 14.9666 50.2882 14.5589C50.444 14.1513 50.5218 13.6922 50.5218 13.1818C50.5218 12.678 50.4456 12.2256 50.2931 11.8246C50.144 11.4235 49.9186 11.107 49.617 10.875C49.3187 10.643 48.9458 10.527 48.4984 10.527C48.0675 10.527 47.7029 10.638 47.4047 10.8601C47.1097 11.0821 46.8859 11.392 46.7335 11.7898C46.581 12.1875 46.5048 12.6515 46.5048 13.1818ZM56.9799 17.1541C56.2276 17.1541 55.5796 16.9934 55.036 16.6719C54.4958 16.3471 54.0782 15.8913 53.7832 15.3047C53.4915 14.7147 53.3457 14.0237 53.3457 13.2315C53.3457 12.4493 53.4915 11.7599 53.7832 11.1634C54.0782 10.5668 54.4892 10.1011 55.0162 9.76633C55.5465 9.43158 56.1663 9.2642 56.8755 9.2642C57.3064 9.2642 57.724 9.33546 58.1284 9.47798C58.5327 9.6205 58.8957 9.84422 59.2172 10.1491C59.5386 10.4541 59.7922 10.8501 59.9778 11.3374C60.1634 11.8213 60.2562 12.4096 60.2562 13.1023V13.6293H54.1859V12.5156H58.7995C58.7995 12.1245 58.72 11.7782 58.5609 11.4766C58.4018 11.1716 58.1781 10.9313 57.8897 10.7557C57.6047 10.58 57.2699 10.4922 56.8855 10.4922C56.4679 10.4922 56.1033 10.5949 55.7917 10.8004C55.4835 11.0026 55.2449 11.2678 55.0758 11.5959C54.9101 11.9207 54.8272 12.2737 54.8272 12.6548V13.5249C54.8272 14.0353 54.9167 14.4695 55.0957 14.8274C55.278 15.1854 55.5315 15.4588 55.8564 15.6477C56.1812 15.8333 56.5607 15.9261 56.9949 15.9261C57.2766 15.9261 57.5334 15.8864 57.7654 15.8068C57.9975 15.724 58.198 15.6013 58.367 15.4389C58.536 15.2765 58.6653 15.076 58.7548 14.8374L60.1618 15.0909C60.0491 15.5052 59.8469 15.8681 59.5552 16.1797C59.2669 16.4879 58.9039 16.7282 58.4664 16.9006C58.0323 17.0696 57.5368 17.1541 56.9799 17.1541ZM61.9055 17V9.36364H63.3423V10.5767H63.4219C63.5611 10.1657 63.8063 9.84257 64.1577 9.60724C64.5123 9.36861 64.9134 9.24929 65.3608 9.24929C65.4536 9.24929 65.563 9.2526 65.6889 9.25923C65.8182 9.26586 65.9193 9.27415 65.9922 9.28409V10.706C65.9325 10.6894 65.8265 10.6712 65.674 10.6513C65.5215 10.6281 65.3691 10.6165 65.2166 10.6165C64.8653 10.6165 64.5521 10.6911 64.277 10.8402C64.0052 10.986 63.7898 11.1899 63.6307 11.4517C63.4716 11.7102 63.392 12.0052 63.392 12.3366V17H61.9055Z" fill="white"/>
<path d="M15.1488 6.89165C16.8598 7.94858 18 9.84114 18 12C18 15.3137 15.3137 18 12 18C11.2774 18 10.5846 17.8723 9.94318 17.6379L9.87466 17.6124L9.98624 17.5766L10.1297 17.5295L10.2004 17.5059L10.2706 17.4822L10.4089 17.4345L10.5448 17.3865L10.6781 17.3382L10.8089 17.2896L10.8733 17.2652L11.0003 17.2161C11.1343 17.1635 11.2641 17.1104 11.3896 17.0568L11.4829 17.0164L11.5972 16.9656C11.6474 16.943 11.6969 16.9203 11.7457 16.8974L11.8182 16.8631L11.925 16.8113L11.9774 16.7852L12.0292 16.7591L12.1309 16.7066C12.9845 16.2588 13.5645 15.7724 13.8725 15.2391C14.5249 14.109 13.9551 12.9014 12.3194 11.6703L12.1862 11.5705L12.1054 11.5085L12.0269 11.4469L11.9507 11.3859L11.8769 11.3253L11.8409 11.2951L11.8054 11.2651L11.7362 11.2055L11.6859 11.161L11.6368 11.1168L11.5734 11.0583L11.5123 11.0002L11.4535 10.9426L11.4249 10.914L11.3969 10.8854L11.3426 10.8287C10.696 10.1413 10.5516 9.55291 10.8452 9.04446C10.9946 8.78567 11.2536 8.53125 11.6218 8.28346L11.6665 8.25376L11.7369 8.20846C11.7688 8.18836 11.8013 8.16831 11.8346 8.1483L11.8851 8.11832L11.9629 8.07349L12.0431 8.02883L12.1048 7.99544L12.1679 7.96214L12.2543 7.9179C12.3199 7.88478 12.3876 7.85181 12.4574 7.81899L12.5279 7.78623L12.624 7.7427L12.673 7.72101L12.7727 7.67776L12.8235 7.65621L12.927 7.61326L12.9796 7.59185L13.0867 7.54919L13.1411 7.52794L13.2519 7.48558L13.3651 7.44343L13.4226 7.42243L13.5395 7.3806L13.6587 7.33898L13.7805 7.29757L13.8423 7.27695L13.9676 7.23588L14.0955 7.19503L14.2257 7.1544L14.3584 7.11401L14.4935 7.07385L14.6659 7.02399L14.842 6.97451L15.0584 6.91563L15.1488 6.89165ZM12 6C12.7297 6 13.4289 6.13025 14.0757 6.36876L14.1448 6.39472L14.101 6.40799L13.8873 6.47386L13.8173 6.49599L13.6793 6.54051L13.5437 6.58537L13.4107 6.63058L13.2802 6.67615L13.1522 6.72207L13.0891 6.74517L12.9342 6.8033L12.7832 6.862L12.6653 6.90938L12.6073 6.93321L12.4931 6.98115C11.3262 7.47843 10.5614 8.03602 10.1957 8.66946C9.55738 9.77503 10.1363 10.9668 11.7722 12.1976L11.9053 12.2974L11.9862 12.3595L12.0646 12.4211L12.103 12.4517L12.1779 12.5127L12.2325 12.5581L12.2859 12.6033L12.3549 12.6631L12.3886 12.6929L12.4542 12.7521C12.49 12.7849 12.5247 12.8175 12.5583 12.8498L12.608 12.8983L12.6795 12.9704L12.7474 13.0418C13.3913 13.7339 13.5289 14.3341 13.2229 14.8641C13.025 15.207 12.647 15.5445 12.0899 15.8722L12.0388 15.9019L11.9559 15.9489L11.8705 15.9957C11.8224 16.0217 11.7732 16.0476 11.7228 16.0734L11.6464 16.1121L11.5524 16.1584L11.4559 16.2045L11.357 16.2505L11.3066 16.2735L11.204 16.3192L11.099 16.3648L10.9914 16.4102L10.9367 16.4328L10.8255 16.478L10.769 16.5005L10.7118 16.523L10.5957 16.5678L10.4771 16.6124L10.356 16.6568L10.2325 16.7011L10.1065 16.7451L10.0426 16.7671L9.91293 16.8108L9.84717 16.8326L9.71382 16.8761L9.57802 16.9194L9.40481 16.9732L9.22776 17.0266L9.08337 17.0692L8.88185 17.1271C7.1538 16.0739 6 14.1717 6 12C6 8.68629 8.68629 6 12 6Z" fill="white"/>
</svg>
