<svg width="72" height="24" viewBox="0 0 72 24" fill="none" xmlns="http://www.w3.org/2000/svg">
<rect width="72" height="24" fill="#FF9122"/>
<path d="M63.1332 16.9766C62.5469 16.9766 62.0167 16.84 61.5428 16.5669C61.077 16.2938 60.7115 15.9163 60.4464 15.4343C60.1814 14.9444 60.0488 14.3982 60.0488 13.7958C60.0488 13.2175 60.1733 12.6873 60.4223 12.2053C60.6793 11.7154 61.0368 11.3299 61.4946 11.0487C61.9524 10.7596 62.4746 10.615 63.0609 10.615C63.6634 10.615 64.1854 10.7475 64.6273 11.0126C65.077 11.2777 65.4184 11.6471 65.6514 12.121C65.8843 12.5869 66.0008 13.1251 66.0008 13.7355C66.0008 13.8078 65.9967 13.8801 65.9887 13.9524C65.9807 14.0247 65.9766 14.0649 65.9766 14.0729H61.3741C61.4143 14.6191 61.6111 15.0408 61.9645 15.338C62.318 15.6352 62.7195 15.7837 63.1694 15.7837C63.8602 15.7837 64.3903 15.4625 64.7598 14.8199L65.8923 15.3621C65.6272 15.8521 65.2578 16.2456 64.7839 16.5428C64.318 16.832 63.7678 16.9766 63.1332 16.9766ZM64.6513 13.0609C64.6353 12.868 64.571 12.6712 64.4586 12.4705C64.3461 12.2696 64.1694 12.1009 63.9284 11.9644C63.6955 11.8198 63.4023 11.7475 63.0489 11.7475C62.6553 11.7475 62.3139 11.868 62.0247 12.109C61.7436 12.3499 61.5509 12.6673 61.4464 13.0609H64.6513Z" fill="white"/>
<path d="M57.1386 16.9766C56.4558 16.9766 55.8896 16.8199 55.4397 16.5067C54.998 16.1854 54.6847 15.7837 54.5 15.3018L55.6807 14.7958C55.8173 15.1251 56.0141 15.3741 56.2711 15.5428C56.5361 15.7114 56.8253 15.7958 57.1386 15.7958C57.4679 15.7958 57.737 15.7356 57.9458 15.6151C58.1547 15.4866 58.2591 15.3219 58.2591 15.1211C58.2591 14.9283 58.1748 14.7717 58.006 14.6512C57.8373 14.5227 57.5602 14.4102 57.1747 14.3139L56.3554 14.1211C55.9056 14.0166 55.5161 13.8239 55.1868 13.5428C54.8655 13.2536 54.7048 12.8801 54.7048 12.4222C54.7048 11.868 54.9337 11.4303 55.3916 11.109C55.8494 10.7796 56.4116 10.615 57.0783 10.615C57.6325 10.615 58.1225 10.7315 58.5483 10.9644C58.982 11.1973 59.2952 11.5347 59.488 11.9765L58.3193 12.4705C58.2069 12.2215 58.0341 12.0367 57.8012 11.9162C57.5683 11.7957 57.3153 11.7355 57.0422 11.7355C56.7771 11.7355 56.5442 11.7957 56.3434 11.9162C56.1425 12.0286 56.0422 12.1813 56.0422 12.3741C56.0422 12.5428 56.1104 12.6793 56.247 12.7837C56.3915 12.8881 56.6165 12.9765 56.9217 13.0488L57.8133 13.2657C58.4157 13.4182 58.8655 13.6512 59.1627 13.9644C59.4599 14.2697 59.6085 14.6392 59.6085 15.0729C59.6085 15.4263 59.5001 15.7476 59.2832 16.0368C59.0744 16.3259 58.7812 16.5549 58.4037 16.7236C58.0341 16.8922 57.6125 16.9766 57.1386 16.9766Z" fill="white"/>
<path d="M50.7999 16.9766C50.3742 16.9766 49.9886 16.8922 49.6433 16.7236C49.3059 16.5469 49.0368 16.3059 48.836 16.0006C48.6432 15.6874 48.5469 15.334 48.5469 14.9404C48.5469 14.3139 48.7798 13.8198 49.2456 13.4584C49.7195 13.0969 50.318 12.9163 51.0409 12.9163C51.6754 12.9163 52.2176 13.0247 52.6674 13.2415V12.9886C52.6674 12.6271 52.5228 12.3299 52.2336 12.097C51.9525 11.856 51.6112 11.7355 51.2095 11.7355C50.5991 11.7355 50.1092 11.9845 49.7396 12.4825L48.7276 11.7837C49.0087 11.4062 49.3581 11.117 49.7758 10.9162C50.2015 10.7154 50.6795 10.615 51.2095 10.615C52.0851 10.615 52.7598 10.8359 53.2337 11.2777C53.7156 11.7114 53.9566 12.3259 53.9566 13.1211V16.7838H52.6674V16.0489H52.5951C52.4024 16.3219 52.1574 16.5469 51.8602 16.7236C51.563 16.8922 51.2095 16.9766 50.7999 16.9766ZM51.0168 15.8801C51.314 15.8801 51.5871 15.8079 51.8361 15.6633C52.0931 15.5107 52.2939 15.3139 52.4385 15.0729C52.5911 14.8239 52.6674 14.5589 52.6674 14.2777C52.2417 14.0448 51.7879 13.9283 51.3059 13.9283C50.8642 13.9283 50.5188 14.0247 50.2698 14.2175C50.0208 14.4102 49.8963 14.6552 49.8963 14.9524C49.8963 15.2255 50.0047 15.4505 50.2216 15.6272C50.4465 15.7958 50.7115 15.8801 51.0168 15.8801Z" fill="white"/>
<path d="M45.2375 16.9762C44.8037 16.9762 44.4142 16.8839 44.0688 16.699C43.7315 16.5143 43.4784 16.2814 43.3098 16.0003H43.2375V16.7834H41.9844V8.15674H43.3098V10.7471L43.2375 11.5785H43.3098C43.4784 11.3054 43.7315 11.0765 44.0688 10.8917C44.4142 10.707 44.8037 10.6146 45.2375 10.6146C45.7515 10.6146 46.2255 10.7512 46.6592 11.0243C47.101 11.2974 47.4504 11.6789 47.7074 12.1688C47.9725 12.6508 48.105 13.1929 48.105 13.7954C48.105 14.3978 47.9725 14.94 47.7074 15.4219C47.4504 15.9038 47.101 16.2854 46.6592 16.5665C46.2255 16.8397 45.7515 16.9762 45.2375 16.9762ZM45.0085 15.7593C45.3218 15.7593 45.611 15.679 45.876 15.5184C46.1491 15.3577 46.366 15.1287 46.5267 14.8316C46.6953 14.5263 46.7797 14.181 46.7797 13.7954C46.7797 13.4098 46.6953 13.0685 46.5267 12.7713C46.366 12.4661 46.1491 12.2331 45.876 12.0725C45.611 11.9118 45.3218 11.8315 45.0085 11.8315C44.6953 11.8315 44.4021 11.9118 44.129 12.0725C43.864 12.2331 43.6471 12.462 43.4784 12.7592C43.3178 13.0565 43.2375 13.4018 43.2375 13.7954C43.2375 14.189 43.3178 14.5344 43.4784 14.8316C43.6471 15.1287 43.864 15.3577 44.129 15.5184C44.4021 15.679 44.6953 15.7593 45.0085 15.7593Z" fill="white"/>
<path d="M38.3285 16.9766C37.7421 16.9766 37.212 16.84 36.7381 16.5669C36.2722 16.2938 35.9067 15.9163 35.6417 15.4343C35.3767 14.9444 35.2441 14.3982 35.2441 13.7958C35.2441 13.2175 35.3686 12.6873 35.6176 12.2053C35.8747 11.7154 36.2321 11.3299 36.6899 11.0487C37.1477 10.7596 37.6699 10.615 38.2562 10.615C38.8586 10.615 39.3808 10.7475 39.8225 11.0126C40.2723 11.2777 40.6137 11.6471 40.8466 12.121C41.0795 12.5869 41.196 13.1251 41.196 13.7355C41.196 13.8078 41.192 13.8801 41.184 13.9524C41.1759 14.0247 41.1719 14.0649 41.1719 14.0729H36.5694C36.6096 14.6191 36.8064 15.0408 37.1598 15.338C37.5132 15.6352 37.9148 15.7837 38.3647 15.7837C39.0554 15.7837 39.5856 15.4625 39.955 14.8199L41.0876 15.3621C40.8225 15.8521 40.4531 16.2456 39.9792 16.5428C39.5133 16.832 38.9631 16.9766 38.3285 16.9766ZM39.8466 13.0609C39.8305 12.868 39.7663 12.6712 39.6538 12.4705C39.5414 12.2696 39.3647 12.1009 39.1237 11.9644C38.8908 11.8198 38.5976 11.7475 38.2441 11.7475C37.8506 11.7475 37.5092 11.868 37.22 12.109C36.939 12.3499 36.7461 12.6673 36.6417 13.0609H39.8466Z" fill="white"/>
<path d="M31.5664 10.8077H32.8194V11.6993H32.8917C33.0203 11.394 33.2532 11.141 33.5905 10.9402C33.9279 10.7314 34.2732 10.627 34.6267 10.627C34.9158 10.627 35.1528 10.6671 35.3376 10.7474V12.133C35.0644 11.9965 34.7592 11.9282 34.4219 11.9282C33.9881 11.9282 33.6226 12.0969 33.3254 12.4342C33.0363 12.7635 32.8917 13.1691 32.8917 13.6511V16.7837H31.5664V10.8077Z" fill="white"/>
<path d="M29.6748 9.79561C29.4258 9.79561 29.2129 9.71128 29.0362 9.5426C28.8675 9.36589 28.7832 9.15303 28.7832 8.90403C28.7832 8.65503 28.8675 8.44619 29.0362 8.27752C29.2129 8.10081 29.4258 8.01245 29.6748 8.01245C29.9238 8.01245 30.1326 8.10081 30.3013 8.27752C30.478 8.44619 30.5664 8.65503 30.5664 8.90403C30.5664 9.15303 30.478 9.36589 30.3013 9.5426C30.1326 9.71128 29.9238 9.79561 29.6748 9.79561ZM29.0121 10.8077H30.3374V16.7837H29.0121V10.8077Z" fill="white"/>
<path d="M22.9746 8.15674H28.2156V9.44592H24.324V11.9279H27.8301V13.205H24.324V16.7834H22.9746V8.15674Z" fill="white"/>
<path d="M9.94922 19.3818C10.6119 19.6485 11.3308 19.8068 12.0856 19.8331C13.1072 19.8688 14.0787 19.6576 14.9471 19.2564C13.9057 18.8472 12.9625 18.2489 12.1575 17.5049C11.6357 18.3404 10.864 19.0002 9.94922 19.3818Z" fill="#FF9100"/>
<path d="M12.1574 17.5049C10.3199 15.8055 9.20515 13.3458 9.29936 10.6479C9.30242 10.5603 9.30704 10.4728 9.31245 10.3852C8.98336 10.3001 8.63979 10.2482 8.28622 10.2358C7.78013 10.2182 7.29002 10.2809 6.82731 10.4112C6.3368 11.2705 6.04079 12.2564 6.00391 13.3123C5.90875 16.0376 7.55797 18.4189 9.94905 19.3819C10.8638 19.0003 11.6356 18.3412 12.1574 17.5049Z" fill="#FFC400"/>
<path d="M12.1565 17.5047C12.5837 16.821 12.8428 16.0195 12.8729 15.156C12.9522 12.8844 11.4251 10.9303 9.3116 10.385C9.30619 10.4725 9.30156 10.5601 9.2985 10.6477C9.20429 13.3456 10.319 15.8053 12.1565 17.5047Z" fill="#FF9100"/>
<path d="M12.6365 4C11.4327 4.96435 10.4822 6.23592 9.90711 7.70074C9.57786 8.53977 9.37096 9.44103 9.31055 10.3858C11.4241 10.9311 12.9512 12.8852 12.8719 15.1567C12.8417 16.0203 12.5819 16.821 12.1555 17.5055C12.9604 18.2502 13.9036 18.8478 14.9451 19.257C17.0354 18.2907 18.5185 16.2115 18.6044 13.7522C18.66 12.1588 18.0479 10.7387 17.1828 9.53996C16.2692 8.27221 12.6365 4 12.6365 4Z" fill="#DD2C00"/>
</svg>
