<svg width="72" height="24" viewBox="0 0 72 24" fill="none" xmlns="http://www.w3.org/2000/svg">
<rect width="72" height="24" fill="#0868AC"/>
<path d="M31.6563 11.2913L31.2722 12.6517L31.6563 11.2908V11.2913Z" fill="white"/>
<path d="M42.9409 8.17444H41.1818C41.0839 8.17444 40.9871 8.25251 40.9663 8.34827L39.7173 14.1288C39.6964 14.2241 39.5996 14.3022 39.5023 14.3022H38.2569C37.0245 14.3022 37.1671 13.4502 37.4242 12.2828L37.432 12.2474L37.5814 11.4512L37.6459 11.1233L38.2142 8.34827C38.234 8.25251 38.17 8.17392 38.0721 8.17392H36.2662C36.2164 8.17563 36.1685 8.19353 36.1299 8.2249C36.0912 8.25627 36.0637 8.2994 36.0518 8.34775L35.2279 12.2063C34.7803 14.2485 34.899 16.1961 37.3305 16.2569H41.2167C41.3145 16.2569 41.4108 16.1789 41.4316 16.0831L43.0773 8.34619C43.0981 8.25043 43.0341 8.17236 42.9367 8.17236L42.9409 8.17444ZM49.9565 14.3225C50.0543 14.3225 50.1126 14.4005 50.0986 14.4963L49.9279 15.3316" fill="white"/>
<path d="M45.2553 13.2466C45.2538 13.155 45.3579 12.9978 45.4557 12.9978L45.2361 12.9941C45.132 13.9903 45.2553 13.2466 45.2553 13.2466ZM49.9565 14.3275C50.0544 14.3275 50.1126 14.4056 50.0986 14.5013L49.9045 15.4673" fill="white"/>
<path d="M49.7577 16.1673L49.9008 15.4678L49.7577 16.1678V16.1673ZM20.8184 13.2674L21.0916 12.0558L20.7793 13.4402L20.7429 13.614L20.8189 13.2664L20.8184 13.2674ZM24.0909 8.15403H22.1585C22.1086 8.15599 22.0606 8.17386 22.0215 8.20505C21.9825 8.23623 21.9545 8.27908 21.9415 8.32734L21.5751 9.94072C21.5689 9.9616 21.5679 9.98366 21.5721 10.005C21.5763 10.0264 21.5856 10.0464 21.5992 10.0634C21.6128 10.0805 21.6303 10.0939 21.6502 10.1027C21.6701 10.1115 21.6918 10.1154 21.7135 10.114H23.661C23.7589 10.114 23.8557 10.036 23.8765 9.94072L24.2304 8.3237C24.2512 8.22846 24.1888 8.15039 24.0899 8.15039L24.0909 8.15403ZM18.0611 19.532L19.6547 19.5445C19.1842 19.5445 18.4072 19.5356 18.0605 19.5315L18.0611 19.532Z" fill="white"/>
<path d="M23.5352 10.6706H21.5924C21.5424 10.6725 21.4944 10.6904 21.4554 10.7216C21.4163 10.7528 21.3883 10.7956 21.3753 10.8439L20.8289 13.2671L20.7529 13.6147L20.2324 16.0884C20.2066 16.2038 20.1754 16.3179 20.1387 16.4303C20.1387 16.4303 19.7744 17.5128 19.1634 17.5009L18.5571 17.4894C18.5074 17.4908 18.4594 17.508 18.4201 17.5385C18.3808 17.569 18.3522 17.6113 18.3385 17.6591L17.9347 19.3568C17.9283 19.3775 17.927 19.3995 17.9309 19.4209C17.9348 19.4422 17.9438 19.4623 17.9572 19.4795C17.9705 19.4966 17.9877 19.5103 18.0075 19.5194C18.0272 19.5285 18.0488 19.5327 18.0705 19.5316L19.6646 19.5447C21.1926 19.5447 21.9978 18.6979 22.5146 16.2622L23.6856 10.8496C23.7064 10.7544 23.6429 10.6763 23.5451 10.6763L23.5352 10.6706ZM51.202 16.2586C51.1041 16.2586 51.0458 16.1805 51.0615 16.0847L52.5276 9.22217" fill="white"/>
<path d="M51.0834 16.1721C51.0715 16.1242 51.0782 16.0071 51.099 15.9118L51.7944 12.6539L51.0616 16.0852C51.0408 16.1809 51.1043 16.259 51.2021 16.259H51.3801C51.2822 16.259 51.0949 16.2199 51.0834 16.1721ZM53.1236 16.2199C53.0705 16.2408 52.9466 16.259 52.8488 16.259H53.0268C53.0764 16.257 53.1241 16.2389 53.1626 16.2075C53.2011 16.176 53.2283 16.1329 53.2402 16.0846L53.2755 15.9108C53.2563 16.0066 53.1715 16.1986 53.1194 16.2199H53.1236ZM59.3169 9.68213L59.3975 10.0152C59.4199 10.1105 59.358 10.188 59.2607 10.1885" fill="white"/>
<path d="M53.7976 13.3286L53.8694 12.983L54.1489 11.6741L53.8325 13.1563L53.7976 13.3286ZM52.5511 9.10986L52.4902 9.39611L51.7949 12.6541L52.5277 9.2228L52.5511 9.11038V9.10986Z" fill="white"/>
<path d="M59.3974 10.0152L59.3168 9.68214L59.1971 9.1617C59.0389 8.54757 58.5746 8.19211 57.566 8.19211L52.9236 8.18899C52.8739 8.1907 52.826 8.20859 52.7873 8.23996C52.7486 8.27133 52.7212 8.31446 52.7092 8.36282L52.6374 8.70267L52.5333 9.21634L51.1052 15.9056C51.0844 16.0014 51.0776 16.1138 51.0896 16.1658C51.1016 16.2179 51.2889 16.2527 51.3862 16.2527H52.8539C52.9517 16.2527 53.0751 16.2351 53.1287 16.2137C53.1823 16.1924 53.2609 16.0055 53.2848 15.9046L53.8417 13.1493L54.4376 10.3577C54.4584 10.2624 54.5547 10.1849 54.652 10.1844L59.2699 10.1823C59.3673 10.1823 59.4292 10.1042 59.4068 10.009L59.3974 10.0152ZM65.342 6.99977L64.9865 7.00133H63.5084C63.4543 7.00455 63.4015 7.01932 63.3536 7.04463C63.3056 7.06995 63.2637 7.10523 63.2305 7.1481L59.9621 11.9362C59.907 12.0169 59.844 12.0049 59.8216 11.9102L59.5812 10.8552C59.5682 10.807 59.5402 10.7641 59.5011 10.7329C59.4621 10.7017 59.4141 10.6839 59.3641 10.6819H57.2631C57.1653 10.6819 57.107 10.7584 57.134 10.8526L58.0708 14.1512C58.0979 14.2449 58.0995 14.3994 58.076 14.4947L57.6597 16.0909C57.6526 16.1114 57.6507 16.1333 57.6542 16.1546C57.6578 16.176 57.6666 16.1962 57.6798 16.2133C57.6931 16.2304 57.7105 16.2439 57.7303 16.2526C57.7501 16.2613 57.7718 16.265 57.7934 16.2632H59.8752C59.9731 16.2632 60.073 16.1851 60.0969 16.0914L60.5133 14.4952C60.5459 14.3828 60.5969 14.2766 60.6642 14.1809L65.9706 7.13821C66.0295 7.06014 65.9977 6.99665 65.8999 6.99769L65.343 7.00133L65.342 6.99977ZM48.6482 11.1311C48.6357 11.2351 48.5379 11.3132 48.44 11.3132H45.7753C45.6832 11.3132 45.6364 11.2508 45.6504 11.1727L45.6525 11.1586L45.6645 11.1134C45.9247 10.4368 46.4373 9.99285 47.4111 9.99285C48.5077 9.99285 48.7216 10.5289 48.6471 11.1311H48.6482ZM47.8675 8.05627C44.4482 8.05627 43.6379 10.1318 43.1835 12.2266C42.7287 14.362 42.7682 16.3589 46.3062 16.3589H46.8672L47.2992 16.3574L49.5506 16.3438C49.6 16.3415 49.6474 16.3233 49.6855 16.2919C49.7237 16.2605 49.7507 16.2175 49.7625 16.1695L50.1044 14.4978C50.1242 14.402 50.0601 14.324 49.9623 14.324H46.7819C45.5172 14.324 45.1409 13.9878 45.2793 12.9995H50.3641C50.4474 12.9979 50.5228 12.9474 50.5525 12.8683C50.5577 12.8542 50.5629 12.8392 50.565 12.8241C51.3196 9.97723 51.1031 8.05836 47.8691 8.05836L47.8675 8.05627ZM31.7046 11.1201L31.6567 11.2903L31.2726 12.6518L30.8885 14.0122C30.8726 14.0602 30.8425 14.1022 30.8021 14.1327C30.7618 14.1632 30.7132 14.1807 30.6627 14.1829H28.6303C27.0888 14.1829 26.7135 12.9771 27.0888 11.1987C27.4635 9.37976 28.1999 8.24884 29.717 8.13434C31.7905 7.97821 32.2048 9.43649 31.7051 11.1196L31.7046 11.1201ZM33.0984 14.0789C33.0984 14.0789 34.056 11.7525 34.2746 10.4082C34.5712 8.60899 33.6708 6 30.1917 6C26.7323 6 25.2303 8.49085 24.6573 11.2044C24.0848 13.9316 24.8353 16.3235 28.2744 16.3048L33.5236 16.2855C33.5739 16.2831 33.6222 16.2652 33.662 16.2343C33.7018 16.2034 33.731 16.1609 33.7458 16.1127L34.1882 14.4276C34.1953 14.4071 34.1973 14.3853 34.1939 14.3639C34.1904 14.3426 34.1817 14.3224 34.1686 14.3052C34.1554 14.2881 34.1382 14.2745 34.1184 14.2657C34.0987 14.2569 34.077 14.2531 34.0555 14.2548H33.2087C33.1254 14.2542 33.0786 14.2006 33.0879 14.1299C33.0895 14.1168 33.0931 14.1038 33.0984 14.0903V14.0789Z" fill="white"/>
<path d="M50.2224 12.5219C50.2224 12.5864 50.1704 12.6384 50.1058 12.6384C50.0413 12.6384 49.9893 12.5864 49.9893 12.5219C49.9893 12.4573 50.0413 12.4053 50.1058 12.4053C50.1704 12.4053 50.2224 12.4573 50.2224 12.5219Z" fill="white"/>
<path d="M6.68511 9.49635C5.73009 10.8693 5.84875 12.6554 6.57842 14.1137L6.63202 14.2178L6.66637 14.2834L6.68719 14.3214L6.72518 14.389L6.79492 14.5087L6.83448 14.5743L6.91514 14.7008L6.94949 14.7539L7.06659 14.923L7.08949 14.9542L7.19618 15.0963L7.23626 15.1473L7.34035 15.2686L7.37782 15.3139L7.51522 15.471L7.52354 15.4799L7.66302 15.6272L7.70778 15.6725L7.81916 15.7765L7.86495 15.8197L8.01744 15.9587L8.04659 15.9832L8.18555 16.1003L8.23759 16.1461L8.35313 16.2366L8.41558 16.2887L8.5457 16.3823L8.60607 16.425L8.73201 16.5083L8.78666 16.5447L8.98443 16.6655L9.03908 16.6967L9.1874 16.78L9.26963 16.8216L9.3758 16.8768L9.40027 16.8887L9.44346 16.9096L9.61157 16.9876L9.64696 17.0032L9.84316 17.0844L9.89104 17.1032L10.0758 17.1719L10.0992 17.1802L10.3053 17.2478L10.3553 17.2624L10.5635 17.3228C15.1824 18.1659 16.5241 14.5467 16.5241 14.5467C15.3973 16.0144 13.4014 16.4021 11.5018 15.9712C11.43 15.9556 11.3603 15.9327 11.2905 15.9119L11.2385 15.8962C11.1705 15.8753 11.1028 15.8533 11.0355 15.8302L11.0074 15.8197C10.947 15.7989 10.8877 15.776 10.8278 15.7531L10.7774 15.7333C10.7122 15.7076 10.6474 15.6807 10.5832 15.6527L10.5447 15.6355L10.3813 15.5595L10.3293 15.5366C10.2866 15.5158 10.2449 15.4939 10.2028 15.4721L10.1185 15.4278C10.0675 15.4005 10.017 15.3722 9.96703 15.343L9.91603 15.3144C9.8495 15.2751 9.78357 15.2349 9.71826 15.1936C9.70004 15.1822 9.68287 15.1697 9.66517 15.1583L9.52465 15.0646C9.50904 15.0542 9.49447 15.0438 9.47937 15.0334L9.34666 14.9371L9.28785 14.8928L9.16815 14.7992L9.11454 14.7565L8.96517 14.6305C8.95997 14.6253 8.95476 14.6217 8.94956 14.617C8.89647 14.565 8.84443 14.5223 8.79239 14.4744L8.74815 14.4317L8.63521 14.3214L8.59097 14.2771C8.544 14.2292 8.49785 14.1804 8.45254 14.1309C8.40251 14.0762 8.35341 14.0207 8.30525 13.9644L8.26882 13.9206L8.16785 13.7957L8.13142 13.7437L8.01484 13.5886C6.96771 12.1563 6.58935 10.1766 7.43611 8.5507M9.65476 8.33992C8.96413 9.32876 9.0016 10.6647 9.54026 11.7155C9.63048 11.8922 9.73254 12.0626 9.84577 12.2256C9.94985 12.3739 10.0644 12.5503 10.2012 12.6695L10.3563 12.8256L10.3969 12.8657L10.5551 13.013L10.5629 13.0198L10.7477 13.1728L10.7893 13.2056L10.9829 13.3461L11.1183 13.4361L11.2614 13.5246L11.2822 13.5366L11.4092 13.6073L11.4545 13.6308L11.5429 13.6766L11.5565 13.6828L11.7412 13.7692L11.7818 13.7858L11.938 13.8473L12.003 13.8712L12.142 13.9196L12.2044 13.9404C12.271 13.9612 12.3366 13.9925 12.4058 13.9987C15.9724 14.5894 16.7958 11.8441 16.7958 11.8441C16.0536 12.9131 14.6162 13.4231 13.0824 13.0255L12.8805 12.9672L12.8196 12.9474L12.6791 12.8985L12.615 12.8746L12.4631 12.8131L12.4214 12.796L12.2356 12.7096L12.142 12.6575L12.0884 12.6299L11.9426 12.5467L11.7995 12.4592L11.6642 12.3692L11.4716 12.2287L11.4284 12.1943C10.7519 11.6645 10.2246 10.9453 9.97119 10.1188C9.71097 9.26683 9.76301 8.31078 10.2226 7.53479M12.143 7.47598C11.736 8.07449 11.6954 8.81873 11.9785 9.48126C12.2762 10.1839 12.8872 10.7303 13.5997 10.9905L13.6882 11.0218L13.7272 11.0343L13.8542 11.0707C15.8236 11.4506 16.3524 10.06 16.4996 9.85545C16.0312 10.5289 15.2506 10.6908 14.2805 10.4566C14.2015 10.4357 14.1234 10.4118 14.0463 10.3847C13.9518 10.3513 13.8593 10.3129 13.7689 10.2697C13.5974 10.1872 13.4346 10.0878 13.2828 9.97307C12.4188 9.31732 11.8776 8.06825 12.4464 7.05078" fill="white"/>
</svg>
