<svg width="72" height="24" viewBox="0 0 72 24" fill="none" xmlns="http://www.w3.org/2000/svg">
<rect width="72" height="24" fill="#078351"/>
<path d="M27.0085 6.81818L29.8423 15.1108H29.9567L32.7905 6.81818H34.451L30.7869 17H29.0121L25.348 6.81818H27.0085ZM40.6394 13.8331V9.36364H42.1309V17H40.6692V15.6776H40.5897C40.414 16.0852 40.1323 16.425 39.7445 16.6967C39.36 16.9652 38.8811 17.0994 38.3077 17.0994C37.8172 17.0994 37.383 16.9917 37.0051 16.7763C36.6306 16.5575 36.3356 16.2344 36.1202 15.8068C35.9081 15.3793 35.802 14.8506 35.802 14.2209V9.36364H37.2885V14.0419C37.2885 14.5623 37.4327 14.9766 37.7211 15.2848C38.0094 15.593 38.3839 15.7472 38.8446 15.7472C39.123 15.7472 39.3998 15.6776 39.6749 15.5384C39.9533 15.3991 40.1837 15.1887 40.3659 14.907C40.5516 14.6252 40.6427 14.2673 40.6394 13.8331ZM47.4194 17.1541C46.667 17.1541 46.0191 16.9934 45.4755 16.6719C44.9353 16.3471 44.5176 15.8913 44.2227 15.3047C43.931 14.7147 43.7852 14.0237 43.7852 13.2315C43.7852 12.4493 43.931 11.7599 44.2227 11.1634C44.5176 10.5668 44.9286 10.1011 45.4556 9.76633C45.9859 9.43158 46.6057 9.2642 47.315 9.2642C47.7459 9.2642 48.1635 9.33546 48.5678 9.47798C48.9722 9.6205 49.3351 9.84422 49.6566 10.1491C49.9781 10.4541 50.2317 10.8501 50.4173 11.3374C50.6029 11.8213 50.6957 12.4096 50.6957 13.1023V13.6293H44.6254V12.5156H49.239C49.239 12.1245 49.1594 11.7782 49.0004 11.4766C48.8413 11.1716 48.6175 10.9313 48.3292 10.7557C48.0442 10.58 47.7094 10.4922 47.3249 10.4922C46.9073 10.4922 46.5427 10.5949 46.2312 10.8004C45.9229 11.0026 45.6843 11.2678 45.5153 11.5959C45.3496 11.9207 45.2667 12.2737 45.2667 12.6548V13.5249C45.2667 14.0353 45.3562 14.4695 45.5352 14.8274C45.7174 15.1854 45.971 15.4588 46.2958 15.6477C46.6206 15.8333 47.0001 15.9261 47.4343 15.9261C47.716 15.9261 47.9729 15.8864 48.2049 15.8068C48.4369 15.724 48.6374 15.6013 48.8065 15.4389C48.9755 15.2765 49.1048 15.076 49.1942 14.8374L50.6012 15.0909C50.4885 15.5052 50.2863 15.8681 49.9947 16.1797C49.7063 16.4879 49.3434 16.7282 48.9059 16.9006C48.4717 17.0696 47.9762 17.1541 47.4194 17.1541ZM53.3406 9.36364L55.0259 12.3366L56.7262 9.36364H58.3519L55.9705 13.1818L58.3718 17H56.7461L55.0259 14.1463L53.3107 17H51.68L54.0565 13.1818L51.7099 9.36364H53.3406Z" fill="white"/>
<path d="M20.7597 11.5005C20.8338 11.6506 20.9072 11.801 20.9821 11.9507C21.9819 13.9505 22.982 15.9502 23.9819 17.9499C23.9888 17.9637 23.995 17.9777 24.0038 17.9964C23.9868 17.9975 23.9733 17.9991 23.9599 17.9991C22.6847 17.9992 21.4096 17.999 20.1345 18.0001C20.1049 18.0001 20.0928 17.9894 20.0807 17.9653C19.6582 17.1195 19.2346 16.2743 18.8119 15.4286C18.3827 14.5699 17.9543 13.7109 17.5255 12.852C17.5194 12.8398 17.5121 12.8283 17.5023 12.8108C17.4915 12.8309 17.4834 12.8453 17.476 12.86C17.3578 13.0957 17.2396 13.3315 17.1217 13.5673C16.9948 13.8208 16.8686 14.0746 16.7414 14.3279C16.6294 14.5509 16.5156 14.7729 16.4042 14.9961C15.911 15.985 15.4183 16.9741 14.9262 17.9635C14.9132 17.9895 14.8995 18 14.8689 18C13.5952 17.999 12.3215 17.9992 11.0478 17.9992H11C11.0526 17.8929 11.1017 17.7926 11.1516 17.6927C12.1808 15.6346 13.2101 13.5765 14.2393 11.5183C14.2412 11.5146 14.2428 11.5106 14.2476 11.5021C14.2601 11.4813 14.2703 11.4656 14.2786 11.4489C14.9086 10.1892 15.5384 8.9295 16.1685 7.66994C16.178 7.65109 16.1917 7.63439 16.2034 7.6167C16.2148 7.6327 16.2285 7.64752 16.2372 7.66487C16.6504 8.48972 17.0631 9.3148 17.4759 10.1399C17.4838 10.1559 17.4911 10.1722 17.5013 10.1938C17.5121 10.1728 17.5212 10.1555 17.53 10.138C17.9453 9.30821 18.3606 8.47844 18.7761 7.64876C18.7815 7.63791 18.7893 7.62822 18.8017 7.61855C18.8176 7.63644 18.8287 7.65328 18.8376 7.67119C19.4671 8.92955 20.0963 10.188 20.7258 11.4463C20.7353 11.4653 20.7483 11.4825 20.7597 11.5005Z" fill="#4FC08D"/>
<path d="M20.7621 11.4973C20.75 11.4824 20.737 11.4652 20.7275 11.4462C20.098 10.1879 19.4688 8.92946 18.8394 7.67111C18.8304 7.65319 18.8193 7.63636 18.8064 7.61761C18.8083 7.59927 18.8102 7.581 18.8179 7.5656C19.2376 6.72507 19.658 5.88489 20.0771 5.04406C20.0938 5.01058 20.1125 4.99998 20.1492 5.00003C21.027 5.0011 21.9049 5.00086 22.7827 5.00086H24.0054C23.995 5.02374 23.9885 5.0392 23.9811 5.05415C22.9157 7.18521 21.8502 9.31625 20.7848 11.4473C20.7771 11.4627 20.7701 11.4786 20.7621 11.4973ZM16.2051 7.61329C16.1934 7.63431 16.1797 7.65101 16.1702 7.66985C15.5401 8.92942 14.9103 10.1892 14.2803 11.4488C14.272 11.4655 14.2618 11.4812 14.25 11.4989C14.1738 11.3507 14.1009 11.2007 14.0263 11.0515C13.0278 9.05391 12.0291 7.05647 11.0304 5.05899C11.0222 5.04262 11.0146 5.02597 11.0039 5.00344C11.0252 5.00238 11.0403 5.00095 11.0555 5.00095C12.3247 5.00086 13.594 5.00103 14.8632 5C14.8992 4.99997 14.9159 5.01267 14.9313 5.04347C15.3481 5.87913 15.766 6.71429 16.1833 7.54973C16.1927 7.56869 16.1979 7.58984 16.2051 7.61329Z" fill="#35495E"/>
</svg>
