<svg width="72" height="24" viewBox="0 0 72 24" fill="none" xmlns="http://www.w3.org/2000/svg">
<rect width="72" height="24" fill="#F16529"/>
<path d="M19 7H22.4318V10.3022H25.5712V7H29.0032V17H25.5714V13.6514H22.432V17H19.0002L19 7ZM33.5159 10.3162H30.4952V7H39.971V10.3162H36.9483V17H33.5165V10.3162H33.5159ZM41.4748 7H45.0531L47.2543 10.5137L49.4534 7H53.0332V17H49.6153V12.0435L47.2543 15.599H47.1951L44.8326 12.0435V17H41.4748V7ZM54.7411 7H58.1739V13.6947H63V17H54.7408V7H54.7411Z" fill="white"/>
<path d="M15.9444 6L14.8563 18.1902L9.96491 19.5463L5.08704 18.1921L4 6H15.9444Z" fill="#E44D26"/>
<path d="M9.97266 18.5095L13.9251 17.4137L14.855 6.99658H9.97266V18.5095Z" fill="#F16529"/>
<path d="M7.85684 9.9875H9.9722V8.49219H6.22266L6.25843 8.89335L6.62597 13.014H9.9722V11.5187H7.99351L7.85684 9.9875ZM8.19386 13.7617H6.69278L6.90226 16.1096L9.96532 16.9599L9.9722 16.958V15.4022L9.96564 15.404L8.30033 14.9543L8.19386 13.7617Z" fill="#EBEBEB"/>
<path d="M9.96684 13.014H11.8082L11.6346 14.9534L9.9668 15.4035V16.9592L13.0323 16.1096L13.0548 15.8569L13.4062 11.9203L13.4427 11.5187H9.96684V13.014ZM9.96684 9.98385V9.9875H13.5787L13.6087 9.65142L13.6769 8.89335L13.7126 8.49219H9.96684V9.98385Z" fill="white"/>
</svg>
