<svg width="72" height="24" viewBox="0 0 72 24" fill="none" xmlns="http://www.w3.org/2000/svg">
<rect width="72" height="24" fill="#0180FF"/>
<path d="M9.05569 6.05565C9.02387 6.07951 9 7.99676 9 10.3038V14.5043L9.6603 14.8941C10.8616 15.6101 11.0764 15.7215 11.1957 15.6737C11.2912 15.634 11.3071 15.1884 11.3071 12.8416C11.3071 10.98 11.3309 10.0572 11.3866 10.0572C11.4741 10.0572 12.0787 10.3913 13.6062 11.2823C14.2824 11.6801 14.5926 11.8154 14.8154 11.8233C15.1416 11.8233 15.1495 11.8233 16.9713 10.7493C17.6157 10.3675 18.1805 10.0572 18.2283 10.0572C18.276 10.0572 18.3078 10.5902 18.3078 11.529V12.9928L18.0771 13.1678C17.9419 13.2632 17.2179 13.7247 16.4622 14.1861L15.0859 15.0373L15.062 16.4772L15.0461 17.9092L16.4781 18.8161C17.2657 19.3173 18.1885 19.898 18.5306 20.1208C19.3579 20.6538 19.5568 20.6459 20.4558 20.1128C20.8297 19.8901 22.015 19.1821 23.089 18.5456C24.4971 17.7103 25.0699 17.3285 25.1336 17.1773C25.2052 17.0341 25.229 16.1829 25.229 14.2656C25.229 11.9665 25.2131 11.5608 25.1097 11.521C25.046 11.4971 24.5926 11.7278 24.0675 12.054C23.3436 12.5075 23.1129 12.6905 23.0333 12.8973C22.9538 13.0803 22.922 13.5496 22.922 14.5441V15.9283L21.673 16.6682C19.3738 18.0365 19.533 18.0047 18.2521 17.2409C17.7589 16.9466 17.3373 16.6522 17.3134 16.5886C17.2498 16.4215 17.3293 16.3579 18.9522 15.2839C19.8193 14.7032 20.4558 14.2338 20.5115 14.1145C20.591 13.9633 20.6149 12.945 20.6149 10.0095C20.6149 6.55684 20.599 6.08747 20.4956 6.04769C20.416 6.02382 19.4295 6.55684 17.9498 7.43193C15.07 9.12643 15.1177 9.10256 14.8234 9.10256C14.6961 9.10256 14.2426 8.89572 13.7255 8.60137C13.2482 8.32294 12.0469 7.62286 11.0525 7.05007C10.0581 6.46933 9.2148 5.99996 9.17502 5.99996C9.13524 5.99996 9.07955 6.02382 9.05569 6.05565Z" fill="white"/>
<path d="M24.1555 6.71591C22.994 7.40008 23.002 7.37621 23.002 8.66498C23.002 9.33324 23.0338 9.74692 23.0895 9.77874C23.1929 9.85034 24.6328 8.99116 24.9749 8.65703L25.2374 8.3945L25.2136 7.33643C25.1897 6.46929 25.1658 6.27836 25.0704 6.26245C25.0067 6.2545 24.593 6.46134 24.1555 6.71591Z" fill="white"/>
<path d="M32.4688 12.0858V16.3499L33.6064 16.326L34.736 16.3021V13.9712C34.7281 12.6983 34.736 11.6482 34.744 11.6482C34.744 11.6482 35.2293 12.2767 35.818 13.0404L36.884 14.4406L37.2818 14.4167L37.6795 14.3928L38.7137 13.0643C39.2865 12.3403 39.7718 11.7198 39.7957 11.6959C39.8195 11.6721 39.8355 12.6983 39.8355 13.9791L39.8275 16.3021L40.9651 16.326L42.0948 16.3499V12.0858V7.82962H41.0606H40.0343L38.6899 9.67527C37.95 10.6936 37.3215 11.5289 37.2818 11.5289C37.2499 11.5289 36.6215 10.7015 35.8975 9.68323L34.5769 7.83757H33.5268L32.4688 7.82962V12.0858Z" fill="white"/>
<path d="M44.4805 10.3675C44.4805 11.7597 44.5123 13.0962 44.56 13.3269C44.8226 14.735 45.8965 15.8329 47.3921 16.2227C48.0047 16.3818 49.3969 16.3818 50.0095 16.2227C51.513 15.8249 52.6188 14.6237 52.8336 13.1201C52.8734 12.8098 52.9132 11.4972 52.9132 10.1925V7.82976H51.7199H50.5266V10.3039C50.5266 13.1042 50.5027 13.2633 50.0095 13.7565C49.198 14.568 47.7342 14.4089 47.1853 13.4463L46.9466 13.0405V10.4312V7.82976H45.7136H44.4805V10.3675Z" fill="white"/>
<path d="M55.379 8.82419V9.81861H56.3735H57.3679V12.0461V14.2736H56.3735H55.3711L55.395 15.284L55.4188 16.3023L58.5453 16.3261L61.6638 16.342V15.3078V14.2736H60.7092H59.7545V12.0461V9.81861H60.7092H61.6638V8.82419V7.82976H58.5214H55.379V8.82419Z" fill="white"/>
</svg>
