<svg width="72" height="24" viewBox="0 0 72 24" fill="none" xmlns="http://www.w3.org/2000/svg">
<rect width="72" height="24" fill="#53C1DE"/>
<path d="M12.9292 11.5548C12.9292 10.8302 12.3234 10.2427 11.5759 10.2427C10.8286 10.2427 10.2227 10.8302 10.2227 11.5548C10.2227 12.2795 10.8286 12.8669 11.5759 12.8669C12.3234 12.8669 12.9292 12.2795 12.9292 11.5548Z" fill="white"/>
<path fill-rule="evenodd" clip-rule="evenodd" d="M15.9725 9.11891C16.2582 7.99295 16.6174 5.90498 15.3511 5.19709C14.0907 4.49229 12.4505 5.84282 11.5844 6.65347C10.7208 5.8509 9.03456 4.50614 7.76931 5.21628C6.50938 5.92344 6.89791 7.9768 7.19003 9.10982C6.01473 9.43347 4 10.1306 4 11.5549C4 12.9751 6.01263 13.7336 7.18097 14.0569C6.88778 15.1962 6.5187 17.2202 7.78024 17.9258C9.05022 18.6358 10.7312 17.3231 11.6054 16.5036C12.477 17.319 14.1015 18.6403 15.3621 17.9328C16.6267 17.223 16.2974 15.163 16.0052 14.0234C17.1378 13.6993 19.1548 12.9574 19.1548 11.5549C19.1548 10.1443 17.1292 9.4415 15.9725 9.11891ZM15.8289 13.4195C15.6371 12.8308 15.3782 12.2047 15.0615 11.558C15.3638 10.9266 15.6126 10.3086 15.7991 9.72369C16.6471 9.96207 18.5074 10.5069 18.5074 11.5549C18.5074 12.6127 16.7222 13.1627 15.8289 13.4195ZM15.0377 17.3895C14.0971 17.9174 12.6999 16.6538 12.0562 16.0533C12.4832 15.6004 12.91 15.074 13.3265 14.4894C14.0592 14.4264 14.7513 14.3233 15.379 14.1826C15.5846 14.9887 15.9825 16.8593 15.0377 17.3895ZM8.10372 17.382C7.16301 16.8561 7.59298 15.0499 7.80868 14.2107C8.4294 14.3439 9.11655 14.4396 9.85095 14.4974C10.2702 15.0694 10.7093 15.5952 11.1518 16.0557C10.6051 16.5685 9.04881 17.9103 8.10372 17.382ZM4.64736 11.5549C4.64736 10.4931 6.49653 9.95222 7.36387 9.71444C7.55354 10.3125 7.8023 10.9378 8.10251 11.5702C7.79841 12.2119 7.5461 12.8472 7.35468 13.4523C6.52766 13.2228 4.64736 12.6173 4.64736 11.5549ZM8.09365 5.75953C9.0382 5.22942 10.5038 6.52044 11.1308 7.10152C10.6905 7.55991 10.2554 8.08177 9.83978 8.65053C9.12706 8.71458 8.44476 8.81743 7.81753 8.95524C7.58221 8.04141 7.15013 6.28906 8.09365 5.75953ZM13.7896 9.33279C14.2732 9.39195 14.7364 9.47065 15.1714 9.56694C15.0408 9.97278 14.8781 10.3972 14.6864 10.8322C14.4085 10.321 14.1102 9.82002 13.7896 9.33279ZM11.5846 7.55009C11.8832 7.86373 12.1823 8.21397 12.4765 8.59395C11.8797 8.56657 11.282 8.56647 10.6853 8.59355C10.9797 8.21709 11.2814 7.86737 11.5846 7.55009ZM8.47394 10.8318C8.28541 10.3982 8.1241 9.97197 7.99238 9.56032C8.42477 9.46651 8.88589 9.38983 9.3663 9.33163C9.04482 9.8178 8.74702 10.3186 8.47394 10.8318ZM9.38009 13.8229C8.88382 13.7692 8.41572 13.6965 7.98346 13.6052C8.11726 13.1863 8.28212 12.7509 8.47467 12.308C8.75152 12.8266 9.05386 13.3322 9.38009 13.8229ZM11.6025 15.604C11.2957 15.283 10.9896 14.9279 10.6907 14.546C11.2909 14.5689 11.8921 14.5689 12.4922 14.5429C12.1971 14.9318 11.8991 15.2874 11.6025 15.604ZM14.6925 12.2855C14.8951 12.7332 15.0659 13.1662 15.2015 13.578C14.762 13.6753 14.2877 13.7536 13.7878 13.8117C14.1107 13.3153 14.4138 12.8065 14.6925 12.2855ZM12.9652 13.8878C12.0472 13.9514 11.1235 13.9507 10.2053 13.893C9.68349 13.154 9.21899 12.3768 8.81805 11.57C9.21707 10.7648 9.67818 9.98915 10.1975 9.25131C11.1164 9.18397 12.041 9.18377 12.9599 9.25172C13.4748 9.9895 13.9352 10.7632 14.3435 11.561C13.9401 12.3658 13.4765 13.1431 12.9652 13.8878ZM15.0278 5.74086C15.9726 6.26923 15.552 8.14575 15.3456 8.96176C14.7169 8.82107 14.0341 8.7164 13.3193 8.65134C12.9029 8.07643 12.4714 7.55367 12.0383 7.1012C12.6733 6.5076 14.0921 5.21767 15.0278 5.74086Z" fill="white"/>
<path d="M23.1186 17V6.81818H26.7479C27.5367 6.81818 28.1913 6.95407 28.7116 7.22585C29.2353 7.49763 29.6264 7.87382 29.8849 8.3544C30.1435 8.83168 30.2727 9.38352 30.2727 10.0099C30.2727 10.633 30.1418 11.1816 29.88 11.6555C29.6214 12.1262 29.2304 12.4924 28.7067 12.7543C28.1863 13.0161 27.5317 13.147 26.7429 13.147H23.9936V11.8246H26.6037C27.1009 11.8246 27.5052 11.7533 27.8168 11.6108C28.1316 11.4683 28.362 11.2611 28.5078 10.9893C28.6536 10.7176 28.7266 10.3911 28.7266 10.0099C28.7266 9.62547 28.652 9.29238 28.5028 9.01065C28.357 8.72893 28.1267 8.51349 27.8118 8.36435C27.5002 8.21188 27.0909 8.13565 26.5838 8.13565H24.6548V17H23.1186ZM28.1449 12.4062L30.6605 17H28.9105L26.4446 12.4062H28.1449ZM35.2182 17.1541C34.4658 17.1541 33.8179 16.9934 33.2743 16.6719C32.7341 16.3471 32.3165 15.8913 32.0215 15.3047C31.7298 14.7147 31.584 14.0237 31.584 13.2315C31.584 12.4493 31.7298 11.7599 32.0215 11.1634C32.3165 10.5668 32.7275 10.1011 33.2544 9.76633C33.7847 9.43158 34.4045 9.2642 35.1138 9.2642C35.5447 9.2642 35.9623 9.33546 36.3667 9.47798C36.771 9.6205 37.1339 9.84422 37.4554 10.1491C37.7769 10.4541 38.0305 10.8501 38.2161 11.3374C38.4017 11.8213 38.4945 12.4096 38.4945 13.1023V13.6293H32.4242V12.5156H37.0378C37.0378 12.1245 36.9583 11.7782 36.7992 11.4766C36.6401 11.1716 36.4164 10.9313 36.128 10.7557C35.843 10.58 35.5082 10.4922 35.1238 10.4922C34.7061 10.4922 34.3416 10.5949 34.03 10.8004C33.7218 11.0026 33.4831 11.2678 33.3141 11.5959C33.1484 11.9207 33.0655 12.2737 33.0655 12.6548V13.5249C33.0655 14.0353 33.155 14.4695 33.334 14.8274C33.5163 15.1854 33.7698 15.4588 34.0946 15.6477C34.4194 15.8333 34.7989 15.9261 35.2331 15.9261C35.5149 15.9261 35.7717 15.8864 36.0037 15.8068C36.2357 15.724 36.4363 15.6013 36.6053 15.4389C36.7743 15.2765 36.9036 15.076 36.9931 14.8374L38.4 15.0909C38.2873 15.5052 38.0852 15.8681 37.7935 16.1797C37.5051 16.4879 37.1422 16.7282 36.7047 16.9006C36.2705 17.0696 35.775 17.1541 35.2182 17.1541ZM42.3661 17.169C41.8822 17.169 41.4447 17.0795 41.0536 16.9006C40.6625 16.7183 40.3526 16.4548 40.1239 16.1101C39.8986 15.7654 39.7859 15.3428 39.7859 14.8423C39.7859 14.4115 39.8687 14.0568 40.0344 13.7784C40.2002 13.5 40.4239 13.2796 40.7056 13.1172C40.9873 12.9548 41.3022 12.8321 41.6502 12.7493C41.9982 12.6664 42.3529 12.6035 42.7141 12.5604C43.1715 12.5073 43.5427 12.4643 43.8278 12.4311C44.1128 12.3946 44.32 12.3366 44.4492 12.2571C44.5785 12.1776 44.6431 12.0483 44.6431 11.8693V11.8345C44.6431 11.4003 44.5205 11.0639 44.2752 10.8253C44.0333 10.5866 43.672 10.4673 43.1914 10.4673C42.6909 10.4673 42.2965 10.5784 42.0082 10.8004C41.7231 11.0192 41.5259 11.2628 41.4165 11.5312L40.0195 11.2131C40.1853 10.7491 40.4272 10.3745 40.7454 10.0895C41.0669 9.80114 41.4364 9.59233 41.854 9.46307C42.2717 9.33049 42.7108 9.2642 43.1715 9.2642C43.4764 9.2642 43.7996 9.30066 44.141 9.37358C44.4857 9.44318 44.8072 9.57244 45.1055 9.76136C45.4071 9.95028 45.654 10.2204 45.8462 10.5717C46.0385 10.9197 46.1346 11.3722 46.1346 11.929V17H44.6829V15.956H44.6232C44.5271 16.1482 44.3829 16.3371 44.1907 16.5227C43.9985 16.7083 43.7515 16.8625 43.4499 16.9851C43.1483 17.1077 42.7871 17.169 42.3661 17.169ZM42.6893 15.9759C43.1003 15.9759 43.4516 15.8946 43.7433 15.7322C44.0382 15.5698 44.262 15.3577 44.4144 15.0959C44.5702 14.8307 44.6481 14.5473 44.6481 14.2457V13.2614C44.5951 13.3144 44.4923 13.3641 44.3398 13.4105C44.1907 13.4536 44.02 13.4917 43.8278 13.5249C43.6355 13.5547 43.4483 13.5829 43.266 13.6094C43.0837 13.6326 42.9312 13.6525 42.8086 13.669C42.5202 13.7055 42.2567 13.7668 42.0181 13.853C41.7828 13.9392 41.5939 14.0634 41.4513 14.2259C41.3121 14.3849 41.2425 14.5971 41.2425 14.8622C41.2425 15.2301 41.3784 15.5085 41.6502 15.6974C41.922 15.883 42.2683 15.9759 42.6893 15.9759ZM51.3311 17.1541C50.592 17.1541 49.9557 16.9867 49.4221 16.652C48.8917 16.3139 48.4841 15.8482 48.199 15.255C47.914 14.6617 47.7715 13.9822 47.7715 13.2166C47.7715 12.4411 47.9173 11.7566 48.209 11.1634C48.5007 10.5668 48.9116 10.1011 49.4419 9.76633C49.9722 9.43158 50.597 9.2642 51.3162 9.2642C51.8962 9.2642 52.4133 9.37192 52.8674 9.58736C53.3214 9.79948 53.6877 10.0978 53.9661 10.4822C54.2478 10.8667 54.4152 11.3158 54.4682 11.8295H53.0215C52.9419 11.4716 52.7596 11.1634 52.4746 10.9048C52.1929 10.6463 51.815 10.517 51.3411 10.517C50.9268 10.517 50.5639 10.6264 50.2523 10.8452C49.9441 11.0606 49.7038 11.3688 49.5314 11.7699C49.3591 12.1676 49.2729 12.6383 49.2729 13.1818C49.2729 13.7386 49.3574 14.2192 49.5265 14.6236C49.6955 15.0279 49.9341 15.3411 50.2424 15.5632C50.5539 15.7853 50.9202 15.8963 51.3411 15.8963C51.6228 15.8963 51.878 15.8449 52.1067 15.7422C52.3387 15.6361 52.5326 15.4853 52.6884 15.2898C52.8475 15.0942 52.9585 14.8589 53.0215 14.5838H54.4682C54.4152 15.0777 54.2544 15.5185 53.986 15.9062C53.7175 16.294 53.3579 16.599 52.9071 16.821C52.4597 17.0431 51.9344 17.1541 51.3311 17.1541ZM59.6225 9.36364V10.5568H55.4513V9.36364H59.6225ZM56.57 7.53409H58.0565V14.7578C58.0565 15.0462 58.0996 15.2633 58.1857 15.4091C58.2719 15.5516 58.3829 15.6494 58.5188 15.7024C58.658 15.7521 58.8088 15.777 58.9712 15.777C59.0906 15.777 59.195 15.7687 59.2844 15.7521C59.3739 15.7356 59.4435 15.7223 59.4933 15.7124L59.7617 16.9403C59.6755 16.9735 59.5529 17.0066 59.3938 17.0398C59.2347 17.0762 59.0359 17.0961 58.7972 17.0994C58.4061 17.1061 58.0415 17.0365 57.7035 16.8906C57.3654 16.7448 57.092 16.5194 56.8832 16.2145C56.6744 15.9096 56.57 15.5268 56.57 15.0661V7.53409Z" fill="white"/>
</svg>
