<svg width="72" height="24" viewBox="0 0 72 24" fill="none" xmlns="http://www.w3.org/2000/svg">
<rect width="72" height="24" fill="#7649BB"/>
<path d="M13.8882 4.04928C12.3356 4.27807 10.9411 5.37301 10.1839 6.95821C9.96601 7.42669 9.70454 8.26559 9.5738 8.91928C9.43217 9.67102 9.44306 11.1309 9.60104 11.9317C9.77535 12.7978 10.0477 13.5877 10.4617 14.4539C10.745 15.0422 10.8104 15.2165 10.7668 15.2982C10.5598 15.6904 10.6742 16.3114 11.0119 16.6383C11.415 17.0359 11.9325 17.1177 12.4282 16.8725C12.8423 16.6655 13.0983 16.2352 13.0983 15.7558C13.0983 15.4562 12.864 15.0204 12.608 14.8352C12.3901 14.6772 11.987 14.5519 11.7637 14.5737C11.5185 14.5955 10.8267 12.9068 10.6143 11.7792C10.4835 11.071 10.4835 9.64379 10.6143 8.97375C10.903 7.44847 11.6711 6.15744 12.6135 5.60725C13.0002 5.37845 13.6812 5.14966 14.1714 5.07885C15.4788 4.88819 16.601 5.5909 17.3364 7.06715C17.5761 7.54653 17.8266 8.28738 17.8757 8.6687C17.892 8.81033 17.9247 8.95196 17.9465 8.99554C17.9683 9.03912 18.1698 9.12628 18.3877 9.19165C18.6111 9.25702 18.8399 9.32239 18.9052 9.34418C19.036 9.38776 19.036 9.38776 18.8943 8.52707C18.5185 6.16833 17.0204 4.41971 15.0594 4.06562C14.6018 3.98391 14.3621 3.97847 13.8882 4.04928Z" fill="white"/>
<path d="M45.0205 9.68224C45.0205 11.104 45.0096 11.3982 44.9442 11.3982C44.9061 11.3982 44.8407 11.3655 44.8081 11.3219C44.6555 11.1421 44.0781 10.946 43.6096 10.9188C42.0353 10.8316 40.8587 11.9266 40.5482 13.7624C40.4665 14.2308 40.5155 15.3203 40.6353 15.8106C40.7715 16.3717 41.1147 17.0254 41.447 17.3577C41.8828 17.7935 42.2532 17.9514 42.9015 17.9787C43.6968 18.0113 44.1816 17.8479 44.7972 17.3359L45.124 17.0635L45.2166 17.3522C45.38 17.8643 45.4127 17.8806 46.2843 17.8806H47.0361V12.9235V7.9663H46.0283H45.0205V9.68224ZM44.5302 12.5476C44.6664 12.6075 44.8298 12.711 44.9007 12.7709C45.0205 12.8853 45.0205 12.9071 45.0205 14.318V15.7507L44.8516 15.9413C44.4703 16.3771 43.7077 16.5569 43.2501 16.3226C42.8361 16.1102 42.6236 15.4837 42.6236 14.4923C42.6236 13.5009 42.8797 12.8254 43.359 12.5585C43.6478 12.3951 44.1816 12.3896 44.5302 12.5476Z" fill="white"/>
<path d="M26.2266 13.0541V17.8805H27.3433H28.46V16.1047V14.3288L28.9176 14.3452C29.2717 14.3615 29.4024 14.3887 29.4896 14.4705C29.5495 14.5249 29.9853 15.2385 30.4538 16.0557C30.9168 16.8728 31.3744 17.6136 31.4615 17.6953L31.625 17.8533L32.8561 17.8696L34.0872 17.886L34.0055 17.7607C33.9619 17.6899 33.4989 16.9381 32.9814 16.0829C31.9082 14.3234 31.8429 14.2308 31.5324 14.0238L31.3036 13.8712L31.6685 13.686C32.0989 13.4681 32.6709 12.907 32.8833 12.5094C33.1012 12.1063 33.1993 11.6596 33.1993 11.0985C33.1993 9.97088 32.7362 9.20824 31.7666 8.72887C30.9549 8.33121 30.6281 8.28763 28.2857 8.25494L26.2266 8.2277V13.0541ZM29.9417 9.98722C30.3339 10.0689 30.6662 10.2705 30.8405 10.532C30.9495 10.7008 30.9876 10.837 31.0094 11.153C31.0421 11.6759 30.9549 11.9864 30.6826 12.2969C30.3721 12.651 30.0234 12.7654 29.1573 12.7981L28.46 12.8308V11.3763V9.9273H29.0592C29.3861 9.9273 29.7837 9.95454 29.9417 9.98722Z" fill="white"/>
<path d="M12.9354 9.19731C12.4997 9.38797 12.2109 9.82921 12.2109 10.3086C12.2109 11.458 13.709 11.9537 14.379 11.0276C14.4716 10.9024 14.6024 10.7825 14.6786 10.7662C14.902 10.7008 16.302 10.8424 16.9121 10.9895C18.3774 11.349 19.7556 12.1117 20.7035 13.1031C22.1089 14.5576 22.5665 16.1809 21.9509 17.4883C21.1447 19.1933 19.4179 19.798 17.2553 19.128L16.6996 18.9536L16.4926 19.1389C16.3782 19.2424 16.1658 19.4112 16.0241 19.5147L15.7627 19.6999L15.9588 19.798C16.2311 19.9396 17.0319 20.1957 17.484 20.2828C18.0233 20.3918 19.1782 20.3809 19.7066 20.261C20.9486 19.9887 22.0817 19.2478 22.6809 18.3217C23.4762 17.0906 23.3782 15.1895 22.4466 13.6587C21.0194 11.3109 18.1268 9.76384 15.158 9.76384H14.5315L14.3627 9.55139C14.0413 9.14828 13.4094 8.9903 12.9354 9.19731Z" fill="white"/>
<path d="M36.0306 11.0493C34.9574 11.3326 34.1131 12.1388 33.7645 13.212C33.6337 13.6042 33.6174 13.7513 33.6174 14.3668C33.6119 15.1839 33.7263 15.696 34.0477 16.3007C34.4181 17.0088 35.0391 17.5372 35.8127 17.8041C36.608 18.082 37.899 18.0438 38.738 17.717C39.1193 17.5699 39.713 17.194 39.92 16.9598C40.0235 16.8508 40.0181 16.8454 39.7839 16.5403C39.3753 16.0065 39.2718 15.9193 39.0702 15.9193C38.9722 15.9193 38.7053 16.0065 38.4819 16.1154C37.8827 16.4096 37.692 16.4641 37.278 16.4641C36.4991 16.4641 35.9761 16.0937 35.7582 15.3855C35.5676 14.7699 35.3442 14.8299 37.7356 14.8299C40.2632 14.8299 40.0344 14.917 40.029 13.9637C40.029 13.4244 40.0018 13.2664 39.8765 12.9015C39.5442 11.9264 38.8741 11.2999 37.899 11.0493C37.4796 10.9404 36.4446 10.9404 36.0306 11.0493ZM37.5994 12.4711C37.9317 12.6291 38.2096 13.0867 38.2096 13.4898V13.6314H36.9294H35.6547L35.7255 13.3863C35.8399 13.0213 36.0633 12.6727 36.2703 12.5419C36.6298 12.324 37.2072 12.2914 37.5994 12.4711Z" fill="white"/>
<path d="M48.125 13.4572C48.125 15.4673 48.1413 15.9521 48.2067 16.219C48.4028 16.9871 48.8005 17.4937 49.4215 17.7879C49.7265 17.9295 49.8682 17.9622 50.2822 17.9785C51.0557 18.0167 51.6604 17.8314 52.1506 17.4065C52.2705 17.3085 52.3849 17.2268 52.4176 17.2268C52.4448 17.2268 52.4938 17.3248 52.532 17.4501C52.6573 17.8587 52.7063 17.8805 53.5724 17.8805H54.3351V14.4486V11.0167L53.3164 11.0276L52.2923 11.044L52.2759 13.5062L52.265 15.9684L52.0199 16.1373C51.3226 16.6167 50.6145 16.5676 50.304 16.0229L50.1678 15.7832L50.1514 13.3972L50.1351 11.0167H49.1328H48.125V13.4572Z" fill="white"/>
<path d="M54.8262 11.0387C54.8262 11.0604 55.3164 11.8122 55.9211 12.711L57.0106 14.3452L56.8308 14.6285C56.7328 14.7865 56.2207 15.5818 55.6869 16.3935L54.7227 17.8806H55.7468H56.7654L56.9343 17.7009C57.0269 17.6082 57.3483 17.0962 57.6534 16.5732C57.953 16.0503 58.2199 15.5872 58.2471 15.5437C58.2744 15.4946 58.4923 15.8269 58.939 16.595C59.2985 17.216 59.6471 17.7608 59.7125 17.8044C59.816 17.8697 60.0393 17.8806 60.9218 17.8697L62.0004 17.8534L60.8674 16.0612C60.2409 15.0752 59.7506 14.2417 59.767 14.2091C59.7888 14.1764 60.279 13.4573 60.8565 12.6184C61.4339 11.7741 61.9078 11.0659 61.9078 11.0495C61.9078 11.0332 61.4884 11.0169 60.9817 11.0169C60.3172 11.0169 60.0012 11.0387 59.8705 11.0931C59.6907 11.1694 59.6035 11.3001 58.7701 12.8036L58.4923 13.3048L57.8604 12.2534C57.5117 11.6706 57.1849 11.1639 57.1359 11.1204C57.065 11.0604 56.7872 11.0387 55.932 11.0278C55.3273 11.0169 54.8262 11.0223 54.8262 11.0387Z" fill="white"/>
<path d="M8.16266 11.9862C6.71364 13.1956 5.99458 14.6064 6.00003 16.2189C6.01093 17.6679 6.5938 18.8391 7.66694 19.5527C8.90896 20.3807 10.5922 20.555 12.4389 20.0484C14.7159 19.4274 16.5844 17.9512 17.7501 15.8539C17.9299 15.5271 17.9789 15.478 18.1805 15.4181C18.6435 15.2819 19.0357 14.7263 19.0357 14.2251C19.0357 14.0072 18.8614 13.6041 18.6925 13.4243C18.3003 12.9994 17.6194 12.9341 17.1237 13.2664C16.5789 13.6313 16.4373 14.4539 16.8241 14.966L16.9602 15.1457L16.6988 15.5815C15.947 16.829 14.8793 17.7823 13.3323 18.5776C12.319 19.0951 11.5183 19.2967 10.4669 19.2967C9.29572 19.2967 8.53308 19.0352 7.89573 18.4196C7.28562 17.8313 6.94244 17.0142 6.94244 16.1372C6.94244 15.1022 7.38912 14.1652 8.33698 13.2228L8.79456 12.7707L8.65837 12.2695C8.58756 11.9917 8.51674 11.7574 8.50585 11.7411C8.4895 11.7302 8.33698 11.8391 8.16266 11.9862Z" fill="white"/>
</svg>
