<svg width="72" height="24" viewBox="0 0 72 24" fill="none" xmlns="http://www.w3.org/2000/svg">
<rect width="72" height="24" fill="#333333"/>
<path d="M10.1186 16V5.81818H16.5021V7.14062H11.6548V10.2429H16.169V11.5604H11.6548V14.6776H16.5618V16H10.1186ZM19.6081 8.36364L21.2935 11.3366L22.9938 8.36364H24.6195L22.2381 12.1818L24.6394 16H23.0137L21.2935 13.1463L19.5783 16H17.9476L20.324 12.1818L17.9775 8.36364H19.6081ZM26.1458 18.8636V8.36364H27.5975V9.60156H27.7218C27.8079 9.44247 27.9322 9.25852 28.0946 9.04972C28.257 8.84091 28.4824 8.65862 28.7708 8.50284C29.0591 8.34375 29.4403 8.2642 29.9142 8.2642C30.5307 8.2642 31.0809 8.41998 31.5648 8.73153C32.0487 9.04309 32.4282 9.49219 32.7033 10.0788C32.9817 10.6655 33.1209 11.3714 33.1209 12.1967C33.1209 13.022 32.9834 13.7296 32.7083 14.3196C32.4332 14.9062 32.0553 15.3587 31.5748 15.6768C31.0942 15.9917 30.5456 16.1491 29.9292 16.1491C29.4651 16.1491 29.0856 16.0713 28.7907 15.9155C28.499 15.7597 28.2703 15.5774 28.1046 15.3686C27.9389 15.1598 27.8113 14.9742 27.7218 14.8118H27.6323V18.8636H26.1458ZM27.6025 12.1818C27.6025 12.7187 27.6803 13.1894 27.8361 13.5938C27.9919 13.9981 28.2173 14.3146 28.5123 14.5433C28.8072 14.7687 29.1685 14.8814 29.5961 14.8814C30.0402 14.8814 30.4114 14.7637 30.7097 14.5284C31.008 14.2898 31.2334 13.9666 31.3858 13.5589C31.5416 13.1513 31.6195 12.6922 31.6195 12.1818C31.6195 11.678 31.5433 11.2256 31.3908 10.8246C31.2417 10.4235 31.0163 10.107 30.7147 9.875C30.4164 9.64299 30.0435 9.52699 29.5961 9.52699C29.1652 9.52699 28.8006 9.63802 28.5023 9.86009C28.2073 10.0821 27.9836 10.392 27.8311 10.7898C27.6787 11.1875 27.6025 11.6515 27.6025 12.1818ZM34.7864 16V8.36364H36.2232V9.5767H36.3027C36.4419 9.16572 36.6872 8.84257 37.0385 8.60724C37.3932 8.36861 37.7942 8.24929 38.2417 8.24929C38.3345 8.24929 38.4438 8.2526 38.5698 8.25923C38.699 8.26586 38.8001 8.27415 38.873 8.28409V9.70597C38.8134 9.68939 38.7073 9.67116 38.5549 9.65128C38.4024 9.62808 38.2499 9.61648 38.0975 9.61648C37.7462 9.61648 37.4329 9.69105 37.1578 9.8402C36.8861 9.98603 36.6706 10.1899 36.5115 10.4517C36.3525 10.7102 36.2729 11.0052 36.2729 11.3366V16H34.7864ZM43.1772 16.1541C42.4248 16.1541 41.7769 15.9934 41.2333 15.6719C40.6931 15.3471 40.2754 14.8913 39.9805 14.3047C39.6888 13.7147 39.543 13.0237 39.543 12.2315C39.543 11.4493 39.6888 10.7599 39.9805 10.1634C40.2754 9.56676 40.6864 9.10109 41.2134 8.76633C41.7437 8.43158 42.3635 8.2642 43.0728 8.2642C43.5037 8.2642 43.9213 8.33546 44.3256 8.47798C44.73 8.6205 45.0929 8.84422 45.4144 9.14915C45.7359 9.45407 45.9895 9.85014 46.1751 10.3374C46.3607 10.8213 46.4535 11.4096 46.4535 12.1023V12.6293H40.3832V11.5156H44.9968C44.9968 11.1245 44.9173 10.7782 44.7582 10.4766C44.5991 10.1716 44.3754 9.93134 44.087 9.75568C43.802 9.58002 43.4672 9.49219 43.0827 9.49219C42.6651 9.49219 42.3005 9.59493 41.989 9.80043C41.6808 10.0026 41.4421 10.2678 41.2731 10.5959C41.1074 10.9207 41.0245 11.2737 41.0245 11.6548V12.5249C41.0245 13.0353 41.114 13.4695 41.293 13.8274C41.4753 14.1854 41.7288 14.4588 42.0536 14.6477C42.3784 14.8333 42.7579 14.9261 43.1921 14.9261C43.4738 14.9261 43.7307 14.8864 43.9627 14.8068C44.1947 14.724 44.3952 14.6013 44.5643 14.4389C44.7333 14.2765 44.8626 14.076 44.9521 13.8374L46.359 14.0909C46.2463 14.5052 46.0442 14.8681 45.7525 15.1797C45.4641 15.4879 45.1012 15.7282 44.6637 15.9006C44.2295 16.0696 43.734 16.1541 43.1772 16.1541ZM53.8251 10.228L52.4778 10.4666C52.4215 10.2943 52.332 10.1302 52.2093 9.97443C52.09 9.81865 51.9276 9.69105 51.7221 9.59162C51.5166 9.49219 51.2598 9.44247 50.9515 9.44247C50.5306 9.44247 50.1793 9.53693 49.8975 9.72585C49.6158 9.91146 49.475 10.1518 49.475 10.4467C49.475 10.7019 49.5694 10.9074 49.7583 11.0632C49.9473 11.219 50.2522 11.3466 50.6731 11.446L51.8862 11.7244C52.5888 11.8868 53.1125 12.1371 53.4572 12.4751C53.8019 12.8132 53.9743 13.2524 53.9743 13.7926C53.9743 14.25 53.8417 14.6577 53.5765 15.0156C53.3147 15.3703 52.9484 15.6487 52.4778 15.8509C52.0105 16.053 51.4686 16.1541 50.8521 16.1541C49.997 16.1541 49.2993 15.9718 48.7591 15.6072C48.2188 15.2393 47.8874 14.7173 47.7647 14.0412L49.2015 13.8224C49.291 14.197 49.475 14.4804 49.7534 14.6726C50.0318 14.8615 50.3947 14.956 50.8422 14.956C51.3294 14.956 51.7188 14.8549 52.0105 14.6527C52.3021 14.4472 52.448 14.197 52.448 13.902C52.448 13.6634 52.3585 13.4628 52.1795 13.3004C52.0038 13.138 51.7337 13.0154 51.3691 12.9325L50.0765 12.6491C49.3639 12.4867 48.8369 12.2282 48.4956 11.8736C48.1575 11.5189 47.9885 11.0698 47.9885 10.5263C47.9885 10.0755 48.1144 9.68111 48.3663 9.34304C48.6182 9.00497 48.9662 8.74148 49.4103 8.55256C49.8545 8.36032 50.3632 8.2642 50.9366 8.2642C51.7619 8.2642 52.4115 8.44318 52.8855 8.80114C53.3594 9.15578 53.6726 9.63139 53.8251 10.228ZM61.331 10.228L59.9837 10.4666C59.9273 10.2943 59.8378 10.1302 59.7152 9.97443C59.5959 9.81865 59.4335 9.69105 59.228 9.59162C59.0225 9.49219 58.7656 9.44247 58.4574 9.44247C58.0365 9.44247 57.6851 9.53693 57.4034 9.72585C57.1217 9.91146 56.9808 10.1518 56.9808 10.4467C56.9808 10.7019 57.0753 10.9074 57.2642 11.0632C57.4531 11.219 57.758 11.3466 58.179 11.446L59.392 11.7244C60.0947 11.8868 60.6184 12.1371 60.9631 12.4751C61.3078 12.8132 61.4801 13.2524 61.4801 13.7926C61.4801 14.25 61.3475 14.6577 61.0824 15.0156C60.8205 15.3703 60.4543 15.6487 59.9837 15.8509C59.5163 16.053 58.9744 16.1541 58.358 16.1541C57.5028 16.1541 56.8052 15.9718 56.2649 15.6072C55.7247 15.2393 55.3932 14.7173 55.2706 14.0412L56.7074 13.8224C56.7969 14.197 56.9808 14.4804 57.2592 14.6726C57.5376 14.8615 57.9006 14.956 58.348 14.956C58.8352 14.956 59.2247 14.8549 59.5163 14.6527C59.808 14.4472 59.9538 14.197 59.9538 13.902C59.9538 13.6634 59.8643 13.4628 59.6854 13.3004C59.5097 13.138 59.2396 13.0154 58.875 12.9325L57.5824 12.6491C56.8698 12.4867 56.3428 12.2282 56.0014 11.8736C55.6634 11.5189 55.4943 11.0698 55.4943 10.5263C55.4943 10.0755 55.6203 9.68111 55.8722 9.34304C56.1241 9.00497 56.4721 8.74148 56.9162 8.55256C57.3603 8.36032 57.8691 8.2642 58.4425 8.2642C59.2678 8.2642 59.9174 8.44318 60.3913 8.80114C60.8653 9.15578 61.1785 9.63139 61.331 10.228Z" fill="white"/>
</svg>
