<svg width="72" height="24" viewBox="0 0 72 24" fill="none" xmlns="http://www.w3.org/2000/svg">
<rect width="72" height="24" fill="#F68410"/>
<path d="M5.92773 16.6885L7.90975 4.03955C7.92161 3.96391 7.95693 3.89391 8.01089 3.8394C8.06475 3.78489 8.13446 3.74865 8.2102 3.73585C8.28585 3.72306 8.36363 3.73428 8.4326 3.76802C8.50148 3.80167 8.55803 3.85618 8.59427 3.92367L10.644 7.73631L11.4611 6.185C11.4922 6.12613 11.5387 6.07682 11.5958 6.04242C11.653 6.00803 11.7184 5.98986 11.7851 5.98986C11.8518 5.98986 11.9172 6.00803 11.9743 6.04242C12.0314 6.07682 12.078 6.12613 12.1091 6.185L17.6406 16.6885H5.92773Z" fill="#FFA000"/>
<path opacity="0.12" d="M12.6997 3.82126L3 3V20.5211L5.92824 16.6883L12.6997 3.82126Z" fill="url(#paint0_linear_105_2884)"/>
<path d="M12.7752 11.7613L10.643 7.73511L5.92773 16.6882L12.7752 11.7613Z" fill="#F57C00"/>
<path d="M17.6406 16.6883L16.1225 7.31996C16.1113 7.25395 16.082 7.1923 16.038 7.14178C15.994 7.09126 15.9369 7.05371 15.8729 7.03341C15.809 7.01301 15.7406 7.0106 15.6754 7.02646C15.6101 7.04222 15.5505 7.07559 15.503 7.12287L5.92773 16.6883L11.226 19.6514C11.3896 19.7425 11.5739 19.7903 11.7613 19.7903C11.9487 19.7903 12.133 19.7425 12.2966 19.6514L17.6406 16.6883Z" fill="#FFCA28"/>
<path d="M16.124 7.31996C16.1127 7.25396 16.0835 7.19231 16.0395 7.14178C15.9955 7.09126 15.9384 7.05371 15.8744 7.03341C15.8104 7.01302 15.7421 7.01061 15.6768 7.02646C15.6116 7.04222 15.552 7.07559 15.5045 7.12287L13.6048 9.02284L12.1096 6.18387C12.0785 6.12501 12.0319 6.07569 11.9748 6.04129C11.9178 6.00699 11.8523 5.98882 11.7857 5.98882C11.7189 5.98882 11.6535 6.00699 11.5965 6.04129C11.5394 6.07569 11.4927 6.12501 11.4617 6.18387L10.6446 7.73518L8.59481 3.92347C8.55856 3.85589 8.50192 3.80147 8.43295 3.76782C8.36389 3.73417 8.28611 3.72304 8.21037 3.73593C8.13463 3.74891 8.06491 3.78525 8.01105 3.83985C7.95729 3.89445 7.92196 3.96454 7.91028 4.04028L5.9292 16.6883H5.92188L5.92827 16.6956L5.98046 16.7212L13.6002 9.11406L15.5017 7.21595C15.5492 7.16839 15.6089 7.13483 15.6743 7.11889C15.7396 7.10294 15.8081 7.10526 15.8723 7.12565C15.9364 7.14605 15.9936 7.18359 16.0377 7.2343C16.0818 7.28501 16.111 7.34685 16.1222 7.41304L17.6274 16.6974L17.6421 16.6883L16.124 7.31996ZM5.94663 16.6709L7.91121 4.13057C7.92289 4.05492 7.95821 3.98475 8.01198 3.93014C8.06584 3.87554 8.13556 3.8392 8.2113 3.82632C8.28694 3.81334 8.36481 3.82455 8.43388 3.85821C8.50285 3.89186 8.55949 3.94627 8.59574 4.01376L10.6454 7.8265L11.4626 6.27509C11.4937 6.21623 11.5403 6.167 11.5973 6.13261C11.6544 6.09821 11.7199 6.08004 11.7865 6.08004C11.8533 6.08004 11.9187 6.09821 11.9757 6.13261C12.0328 6.167 12.0795 6.21623 12.1105 6.27509L13.5746 9.05204L5.94663 16.6709Z" fill="white" fill-opacity="0.2"/>
<path opacity="0.2" d="M12.2966 19.562C12.133 19.6532 11.9487 19.701 11.7613 19.701C11.5739 19.701 11.3896 19.6532 11.226 19.562L5.94053 16.6053L5.92773 16.6884L11.226 19.6506C11.3896 19.7417 11.5739 19.7895 11.7613 19.7895C11.9487 19.7895 12.133 19.7417 12.2966 19.6506L17.6406 16.6884L17.6269 16.6045L12.2966 19.562Z" fill="#A52714"/>
<path d="M16.1225 7.31996C16.1113 7.25396 16.082 7.19231 16.038 7.14178C15.994 7.09126 15.9369 7.05372 15.8729 7.03341C15.809 7.01302 15.7406 7.01061 15.6754 7.02646C15.6101 7.04222 15.5505 7.07559 15.503 7.12287L13.6034 9.02284L12.1081 6.18387C12.0771 6.12501 12.0304 6.07569 11.9733 6.04129C11.9163 6.00699 11.8509 5.98882 11.7841 5.98882C11.7175 5.98882 11.652 6.00699 11.5949 6.04129C11.5379 6.07569 11.4913 6.12501 11.4602 6.18387L10.643 7.73518L8.59335 3.92347C8.5571 3.85589 8.50046 3.80147 8.43149 3.76782C8.36242 3.73417 8.28455 3.72304 8.2089 3.73593C8.13316 3.74891 8.06345 3.78525 8.00959 3.83985C7.95582 3.89445 7.9205 3.96454 7.90882 4.04028L5.92773 16.6883L11.226 19.6504C11.3896 19.7416 11.5739 19.7894 11.7613 19.7894C11.9487 19.7894 12.133 19.7416 12.2966 19.6504L17.6406 16.6883L16.1225 7.31996Z" fill="url(#paint1_linear_105_2884)"/>
<path d="M16.1779 19.7909C18.1994 19.7909 19.8381 18.1566 19.8381 16.1407C19.8381 14.1248 18.1994 12.4905 16.1779 12.4905C14.1564 12.4905 12.5176 14.1248 12.5176 16.1407C12.5176 18.1566 14.1564 19.7909 16.1779 19.7909Z" fill="#757575"/>
<path fill-rule="evenodd" clip-rule="evenodd" d="M16.1765 16.3234L14.5293 17.0534V16.3234L16.1765 15.5933L17.8235 16.3234V16.9621V16.8253V17.0534L16.1765 16.3234ZM16.1765 14.3157L17.8235 15.0458V15.7758L16.1765 15.0458L14.5293 15.7758V15.0458L16.1765 14.3157ZM16.7941 16.9621L17.6176 17.3272L16.1765 17.966V17.2359L16.7941 16.9621Z" fill="white"/>
<path d="M23.1443 13.7966V17.3829H22.0664V9.01934H26.9628V10.0478H23.1443V12.7928H26.5877V13.7966H23.1443ZM28.9889 10.223C28.8407 10.3709 28.661 10.4448 28.4499 10.4448C28.2394 10.4448 28.0601 10.3709 27.9119 10.223C27.763 10.0745 27.6885 9.8954 27.6885 9.68552C27.6885 9.47499 27.763 9.29588 27.9119 9.14802C28.0601 9.00015 28.2394 8.92627 28.4499 8.92627C28.661 8.92627 28.8407 9.00015 28.9889 9.14802C29.1371 9.29588 29.2112 9.47499 29.2112 9.68552C29.2112 9.8954 29.1371 10.0745 28.9889 10.223ZM28.9889 11.6594V17.3829H27.9119V11.6594H28.9889ZM31.3553 14.2529V17.3829H30.2773V11.6594H31.3085V12.5938H31.3553C31.4644 12.2823 31.689 12.0253 32.0288 11.8227C32.3685 11.6202 32.6983 11.5188 33.0179 11.5188C33.3382 11.5188 33.6079 11.5656 33.8268 11.6594L33.4169 12.6641C33.276 12.6093 33.0845 12.582 32.8422 12.582C32.4518 12.582 32.1065 12.7359 31.8064 13.0437C31.5055 13.3509 31.3553 13.7539 31.3553 14.2529ZM36.7779 17.57C35.9111 17.57 35.2065 17.2819 34.6641 16.7058C34.1212 16.1291 33.8497 15.4008 33.8497 14.5211C33.8497 13.6877 34.1132 12.9713 34.6403 12.3721C35.1674 11.7723 35.8409 11.4723 36.6608 11.4723C37.5118 11.4723 38.1933 11.7488 38.705 12.3018C39.2163 12.8548 39.4719 13.5947 39.4719 14.5211L39.46 14.7201H34.9276C34.9588 15.2962 35.1519 15.7515 35.5069 16.0862C35.8626 16.4214 36.2786 16.589 36.7551 16.589C37.528 16.589 38.0511 16.2617 38.3244 15.6071L39.2843 16.005C39.097 16.4485 38.7886 16.8201 38.3591 17.1201C37.9297 17.4201 37.4026 17.57 36.7779 17.57ZM34.9981 13.8322H38.3244C38.3006 13.5048 38.1503 13.1933 37.8733 12.8977C37.5963 12.6014 37.1845 12.4533 36.6379 12.4533C36.2396 12.4533 35.894 12.5781 35.6011 12.8274C35.3083 13.0768 35.1073 13.4118 34.9981 13.8322ZM42.4706 17.57C41.83 17.57 41.3011 17.4143 40.8839 17.1028C40.4659 16.7913 40.1594 16.4019 39.9642 15.9347L40.9241 15.5377C41.2291 16.2538 41.7486 16.6118 42.4824 16.6118C42.818 16.6118 43.0931 16.5379 43.3079 16.3901C43.5226 16.2422 43.6299 16.0476 43.6299 15.806C43.6299 15.4325 43.3685 15.1793 42.8457 15.0468L41.6855 14.7666C41.3188 14.6729 40.9715 14.4956 40.6432 14.2346C40.3156 13.9743 40.1518 13.622 40.1518 13.1779C40.1518 12.6717 40.3763 12.261 40.8253 11.9459C41.2743 11.6302 41.8072 11.4723 42.4239 11.4723C42.9315 11.4723 43.3844 11.5872 43.7828 11.8172C44.1806 12.0466 44.4654 12.3754 44.6374 12.8037L43.7004 13.1897C43.4893 12.6836 43.0519 12.4305 42.3882 12.4305C42.0686 12.4305 41.7992 12.4965 41.5802 12.6285C41.3617 12.7611 41.2526 12.9404 41.2526 13.166C41.2526 13.4933 41.5064 13.7154 42.0139 13.8322L43.1495 14.1005C43.6888 14.2252 44.0872 14.4393 44.3446 14.7429C44.602 15.0465 44.7308 15.3892 44.7308 15.7714C44.7308 16.2848 44.5201 16.7131 44.0985 17.0562C43.6769 17.3987 43.1342 17.57 42.4706 17.57ZM47.9756 17.476C47.3742 17.476 46.9154 17.3165 46.5993 16.9978C46.2834 16.6785 46.1253 16.2267 46.1253 15.6427V12.6404H45.1178V11.6594H46.1253V9.90726H47.2024V11.6594H48.608V12.6404H47.2024V15.5605C47.2024 16.1835 47.4602 16.495 47.9756 16.495C48.1709 16.495 48.3349 16.4639 48.468 16.4019L48.8422 17.3245C48.608 17.4256 48.3191 17.476 47.9756 17.476ZM49.9668 12.3429C50.5214 11.7625 51.228 11.4723 52.087 11.4723C52.946 11.4723 53.6527 11.7625 54.2073 12.3429C54.7612 12.9226 55.0381 13.6487 55.0381 14.5211C55.0381 15.3936 54.7612 16.1196 54.2073 16.6994C53.6527 17.2798 52.946 17.57 52.087 17.57C51.228 17.57 50.5214 17.2798 49.9668 16.6994C49.4123 16.1196 49.135 15.3936 49.135 14.5211C49.135 13.6487 49.4123 12.9226 49.9668 12.3429ZM50.7694 16.0223C51.1402 16.4001 51.5794 16.589 52.087 16.589C52.5946 16.589 53.0338 16.4001 53.4047 16.0223C53.7756 15.6445 53.9611 15.1441 53.9611 14.5211C53.9611 13.8982 53.7756 13.3978 53.4047 13.02C53.0338 12.6422 52.5946 12.4533 52.087 12.4533C51.5794 12.4533 51.1402 12.6422 50.7694 13.02C50.3984 13.3978 50.2129 13.8982 50.2129 14.5211C50.2129 15.1441 50.3984 15.6445 50.7694 16.0223ZM56.9827 14.2529V17.3829H55.9056V11.6594H56.936V12.5938H56.9827C57.0919 12.2823 57.3164 12.0253 57.6561 11.8227C57.9959 11.6202 58.3259 11.5188 58.6462 11.5188C58.9665 11.5188 59.2358 11.5656 59.4542 11.6594L59.0443 12.6641C58.904 12.6093 58.7128 12.582 58.4706 12.582C58.0801 12.582 57.7346 12.7359 57.4338 13.0437C57.133 13.3509 56.9827 13.7539 56.9827 14.2529ZM62.4063 17.57C61.5394 17.57 60.8344 17.2819 60.2915 16.7058C59.7492 16.1291 59.4781 15.4008 59.4781 14.5211C59.4781 13.6877 59.7416 12.9713 60.2686 12.3721C60.7958 11.7723 61.4693 11.4723 62.2891 11.4723C63.1402 11.4723 63.8212 11.7488 64.3325 12.3018C64.8442 12.8548 65.1002 13.5947 65.1002 14.5211L65.0883 14.7201H60.5551C60.5862 15.2962 60.7795 15.7515 61.1352 16.0862C61.4903 16.4214 61.906 16.589 62.3825 16.589C63.1554 16.589 63.6785 16.2617 63.9518 15.6071L64.9127 16.005C64.7253 16.4485 64.417 16.8201 63.9875 17.1201C63.5581 17.4201 63.0309 17.57 62.4063 17.57ZM60.6256 13.8322H63.9518C63.9287 13.5048 63.7782 13.1933 63.5007 12.8977C63.2237 12.6014 62.8119 12.4533 62.2653 12.4533C61.867 12.4533 61.5214 12.5781 61.2286 12.8274C60.9357 13.0768 60.7347 13.4118 60.6256 13.8322Z" fill="white"/>
<defs>
<linearGradient id="paint0_linear_105_2884" x1="8.20673" y1="12.3574" x2="7.47557" y2="11.9742" gradientUnits="userSpaceOnUse">
<stop stop-color="#A52714"/>
<stop offset="0.4" stop-color="#A52714" stop-opacity="0.5"/>
<stop offset="0.8" stop-color="#A52714" stop-opacity="0"/>
</linearGradient>
<linearGradient id="paint1_linear_105_2884" x1="5.48739" y1="6.67585" x2="17.6871" y2="18.9091" gradientUnits="userSpaceOnUse">
<stop stop-color="white" stop-opacity="0.1"/>
<stop offset="1" stop-color="white" stop-opacity="0"/>
</linearGradient>
</defs>
</svg>
